<svg id="fig3_svg" height="450" width="500" style="position: relative; top: -20px;">
        Sorry, your browser does not support inline SVG.
      <rect data-id="feature_2_3" class="feature feature_2_3" x="90" y="130" width="30" height="30" style="fill:rgb(255,255,255);stroke-width:1;stroke:rgb(140,140,140)"></rect><rect data-id="feature_2_4" class="feature feature_2_4" x="120" y="130" width="30" height="30" style="fill:rgb(255,255,255);stroke-width:1;stroke:rgb(140,140,140)"></rect><rect data-id="feature_2_5" class="feature feature_2_5" x="150" y="130" width="30" height="30" style="fill:rgb(255,255,255);stroke-width:1;stroke:rgb(140,140,140)"></rect><rect data-id="feature_2_6" class="feature feature_2_6" x="180" y="130" width="30" height="30" style="fill:rgb(255,255,255);stroke-width:1;stroke:rgb(140,140,140)"></rect><rect data-id="feature_2_7" class="feature feature_2_7" x="210" y="130" width="30" height="30" style="fill:rgb(255,255,255);stroke-width:1;stroke:rgb(140,140,140)"></rect><rect data-id="feature_2_8" class="feature feature_2_8" x="240" y="130" width="30" height="30" style="fill:rgb(255,255,255);stroke-width:1;stroke:rgb(140,140,140)"></rect><rect data-id="feature_2_9" class="feature feature_2_9" x="270" y="130" width="30" height="30" style="fill:rgb(255,255,255);stroke-width:1;stroke:rgb(140,140,140)"></rect><rect data-id="feature_2_10" class="feature feature_2_10" x="300" y="130" width="30" height="30" style="fill:rgb(255,255,255);stroke-width:1;stroke:rgb(140,140,140)"></rect><path data-id="flow_3_5" class="flow flow_3_5" data-offset1="2" data-width1="6" data-rowheight="1" stroke="#8a9fec" d="M60 160 C 60 210, 150 210, 150 260 L210 260 C 210 210, 240 210, 240 160 Z" opacity="0.5" fill-opacity="null" stroke-opacity="null" stroke-width="1" "="" fill="rgb(224,234,250)"></path><rect data-id="feature_3_5" class="feature feature_3_5" x="150" y="260" width="30" height="30" style="fill:rgb(255,255,255);stroke-width:1;stroke:rgb(140,140,140)"></rect><rect data-id="feature_3_6" class="feature feature_3_6" x="180" y="260" width="30" height="30" style="fill:rgb(255,255,255);stroke-width:1;stroke:rgb(140,140,140)"></rect><rect data-id="feature_3_7" class="feature feature_3_7" x="210" y="260" width="30" height="30" style="fill:rgb(255,255,255);stroke-width:1;stroke:rgb(140,140,140)"></rect><path stroke="rgb(89,89,89)" d="M224 75 L 224 105 L220 105 L 225 117 L 230 105 L 226 105 L 226 75 Z" opacity="1.0" fill-opacity="1.0" stroke-opacity="null" stroke-width="1" fill="rgb(89,89,89)"></path><path stroke="rgb(89,89,89)" d="M74 75 L 74 105 L70 105 L 75 117 L 80 105 L 76 105 L 76 75 Z" opacity="1.0" fill-opacity="1.0" stroke-opacity="null" stroke-width="1" fill="rgb(89,89,89)"></path><path data-id="flow_4_5" class="flow flow_4_5" data-offset1="5" data-width1="2" data-rowheight="1" stroke="#8a9fec" d="M150 290 C 150 340, 150 340, 150 390 L180 390 C 180 340, 210 340, 210 290 Z" opacity="0.5" fill-opacity="null" stroke-opacity="null" stroke-width="1" "="" fill="rgb(224,234,250)"></path><rect data-id="feature_4_5" class="feature feature_4_5" x="150" y="390" width="30" height="30" style="fill:rgb(255,255,255);stroke-width:1;stroke:rgb(140,140,140)"></rect><rect data-id="feature_4_6" class="feature feature_4_6" x="180" y="390" width="30" height="30" style="fill:rgb(255,255,255);stroke-width:1;stroke:rgb(140,140,140)"></rect></svg>