<svg id="fig1_svg" height="580" width="650" style="top: 0px;"><rect data-id="feature_1_4" class="feature feature_1_4" x="120" y="0" width="30" height="30" style="fill:rgb(255,255,255);stroke-width:1;stroke:rgb(140,140,140)"></rect><rect data-id="feature_1_5" class="feature feature_1_5" x="150" y="0" width="30" height="30" style="fill:rgb(255,255,255);stroke-width:1;stroke:rgb(140,140,140)"></rect><rect data-id="feature_1_6" class="feature feature_1_6" x="180" y="0" width="30" height="30" style="fill:rgb(255,255,255);stroke-width:1;stroke:rgb(140,140,140)"></rect><rect data-id="feature_1_7" class="feature feature_1_7" x="210" y="0" width="30" height="30" style="fill:rgb(255,255,255);stroke-width:1;stroke:rgb(140,140,140)"></rect><rect data-id="feature_1_8" class="feature feature_1_8" x="240" y="0" width="30" height="30" style="fill:rgb(255,255,255);stroke-width:1;stroke:rgb(140,140,140)"></rect><rect data-id="feature_1_9" class="feature feature_1_9" x="270" y="0" width="30" height="30" style="fill:rgb(255,255,255);stroke-width:1;stroke:rgb(140,140,140)"></rect><rect data-id="feature_1_10" class="feature feature_1_10" x="300" y="0" width="30" height="30" style="fill:rgb(255,255,255);stroke-width:1;stroke:rgb(140,140,140)"></rect><rect data-id="feature_1_11" class="feature feature_1_11" x="330" y="0" width="30" height="30" style="fill:rgb(255,255,255);stroke-width:1;stroke:rgb(140,140,140)"></rect><rect data-id="feature_1_12" class="feature feature_1_12" x="360" y="0" width="30" height="30" style="fill:rgb(255,255,255);stroke-width:1;stroke:rgb(140,140,140)"></rect><rect data-id="feature_1_13" class="feature feature_1_13" x="390" y="0" width="30" height="30" style="fill:rgb(255,255,255);stroke-width:1;stroke:rgb(140,140,140)"></rect><rect data-id="feature_1_14" class="feature feature_1_14" x="420" y="0" width="30" height="30" style="fill:rgb(255,255,255);stroke-width:1;stroke:rgb(140,140,140)"></rect><rect data-id="feature_1_15" class="feature feature_1_15" x="450" y="0" width="30" height="30" style="fill:rgb(255,255,255);stroke-width:1;stroke:rgb(140,140,140)"></rect><rect data-id="feature_1_16" class="feature feature_1_16" x="480" y="0" width="30" height="30" style="fill:rgb(255,255,255);stroke-width:1;stroke:rgb(140,140,140)"></rect><path data-id="flow_2_7" class="flow flow_2_7" data-offset1="3" data-width1="3" data-rowheight="1" stroke="#8a9fec" d="M90 30 C 90 80, 210 80, 210 130 L240 130 C 240 80, 180 80, 180 30 Z" opacity="0.5" fill-opacity="null" stroke-opacity="null" stroke-width="1" "="" fill="rgb(224,234,250)"></path><path data-id="flow_2_8" class="flow flow_2_8" data-offset1="5" data-width1="3" data-rowheight="1" stroke="#8a9fec" d="M150 30 C 150 80, 240 80, 240 130 L270 130 C 270 80, 240 80, 240 30 Z" opacity="0.5" fill-opacity="null" stroke-opacity="null" stroke-width="1" "="" fill="rgb(224,234,250)"></path><path data-id="flow_2_9" class="flow flow_2_9" data-offset1="7" data-width1="3" data-rowheight="1" stroke="#8a9fec" d="M210 30 C 210 80, 270 80, 270 130 L300 130 C 300 80, 300 80, 300 30 Z" opacity="0.5" fill-opacity="null" stroke-opacity="null" stroke-width="1" "="" fill="rgb(224,234,250)"></path><path data-id="flow_2_10" class="flow flow_2_10" data-offset1="9" data-width1="3" data-rowheight="1" stroke="#8a9fec" d="M270 30 C 270 80, 300 80, 300 130 L330 130 C 330 80, 360 80, 360 30 Z" opacity="0.5" fill-opacity="null" stroke-opacity="null" stroke-width="1" "="" fill="rgb(224,234,250)"></path><path data-id="flow_2_11" class="flow flow_2_11" data-offset1="11" data-width1="3" data-rowheight="1" stroke="#8a9fec" d="M330 30 C 330 80, 330 80, 330 130 L360 130 C 360 80, 420 80, 420 30 Z" opacity="0.5" fill-opacity="null" stroke-opacity="null" stroke-width="1" "="" fill="rgb(224,234,250)"></path><path data-id="flow_2_12" class="flow flow_2_12" data-offset1="13" data-width1="3" data-rowheight="1" stroke="#8a9fec" d="M390 30 C 390 80, 360 80, 360 130 L390 130 C 390 80, 480 80, 480 30 Z" opacity="0.5" fill-opacity="null" stroke-opacity="null" stroke-width="1" "="" fill="rgb(224,234,250)"></path><path data-id="flow_2_13" class="flow flow_2_13" data-offset1="15" data-width1="3" data-rowheight="1" stroke="#8a9fec" d="M450 30 C 450 80, 390 80, 390 130 L420 130 C 420 80, 540 80, 540 30 Z" opacity="0.5" fill-opacity="null" stroke-opacity="null" stroke-width="1" "="" fill="rgb(224,234,250)"></path><rect data-id="feature_2_7" class="feature feature_2_7" x="210" y="130" width="30" height="30" style="fill:rgb(255,255,255);stroke-width:1;stroke:rgb(140,140,140)"></rect><rect data-id="feature_2_8" class="feature feature_2_8" x="240" y="130" width="30" height="30" style="fill:rgb(255,255,255);stroke-width:1;stroke:rgb(140,140,140)"></rect><rect data-id="feature_2_9" class="feature feature_2_9" x="270" y="130" width="30" height="30" style="fill:rgb(255,255,255);stroke-width:1;stroke:rgb(140,140,140)"></rect><rect data-id="feature_2_10" class="feature feature_2_10" x="300" y="130" width="30" height="30" style="fill:rgb(255,255,255);stroke-width:1;stroke:rgb(140,140,140)"></rect><rect data-id="feature_2_11" class="feature feature_2_11" x="330" y="130" width="30" height="30" style="fill:rgb(255,255,255);stroke-width:1;stroke:rgb(140,140,140)"></rect><rect data-id="feature_2_12" class="feature feature_2_12" x="360" y="130" width="30" height="30" style="fill:rgb(255,255,255);stroke-width:1;stroke:rgb(140,140,140)"></rect><rect data-id="feature_2_13" class="feature feature_2_13" x="390" y="130" width="30" height="30" style="fill:rgb(255,255,255);stroke-width:1;stroke:rgb(140,140,140)"></rect><path data-id="flow_3_7" class="flow flow_3_7" data-offset1="7" data-width1="1" data-rowheight="1" stroke="#8a9fec" d="M210 160 C 210 210, 210 210, 210 260 L240 260 C 240 210, 240 210, 240 160 Z" opacity="0.5" fill-opacity="null" stroke-opacity="null" stroke-width="1" stroke-dasharray="4" "="" fill="rgb(224,234,250)"></path><path data-id="flow_3_8" class="flow flow_3_8" data-offset1="8" data-width1="1" data-rowheight="1" stroke="#8a9fec" d="M240 160 C 240 210, 240 210, 240 260 L270 260 C 270 210, 270 210, 270 160 Z" opacity="0.5" fill-opacity="null" stroke-opacity="null" stroke-width="1" stroke-dasharray="4" "="" fill="rgb(224,234,250)"></path><path data-id="flow_3_9" class="flow flow_3_9" data-offset1="9" data-width1="1" data-rowheight="1" stroke="#8a9fec" d="M270 160 C 270 210, 270 210, 270 260 L300 260 C 300 210, 300 210, 300 160 Z" opacity="0.5" fill-opacity="null" stroke-opacity="null" stroke-width="1" stroke-dasharray="4" "="" fill="rgb(224,234,250)"></path><path data-id="flow_3_10" class="flow flow_3_10" data-offset1="10" data-width1="1" data-rowheight="1" stroke="#8a9fec" d="M300 160 C 300 210, 300 210, 300 260 L330 260 C 330 210, 330 210, 330 160 Z" opacity="0.5" fill-opacity="null" stroke-opacity="null" stroke-width="1" stroke-dasharray="4" "="" fill="rgb(224,234,250)"></path><path data-id="flow_3_11" class="flow flow_3_11" data-offset1="11" data-width1="1" data-rowheight="1" stroke="#8a9fec" d="M330 160 C 330 210, 330 210, 330 260 L360 260 C 360 210, 360 210, 360 160 Z" opacity="0.5" fill-opacity="null" stroke-opacity="null" stroke-width="1" stroke-dasharray="4" "="" fill="rgb(224,234,250)"></path><path data-id="flow_3_12" class="flow flow_3_12" data-offset1="12" data-width1="1" data-rowheight="1" stroke="#8a9fec" d="M360 160 C 360 210, 360 210, 360 260 L390 260 C 390 210, 390 210, 390 160 Z" opacity="0.5" fill-opacity="null" stroke-opacity="null" stroke-width="1" stroke-dasharray="4" "="" fill="rgb(224,234,250)"></path><path data-id="flow_3_13" class="flow flow_3_13" data-offset1="13" data-width1="1" data-rowheight="1" stroke="#8a9fec" d="M390 160 C 390 210, 390 210, 390 260 L420 260 C 420 210, 420 210, 420 160 Z" opacity="0.5" fill-opacity="null" stroke-opacity="null" stroke-width="1" stroke-dasharray="4" "="" fill="rgb(224,234,250)"></path><rect data-id="feature_3_7" class="feature feature_3_7" x="210" y="260" width="30" height="30" style="fill:rgb(255,255,255);stroke-width:1;stroke:rgb(140,140,140)"></rect><rect data-id="feature_3_8" class="feature feature_3_8" x="240" y="260" width="30" height="30" style="fill:rgb(255,255,255);stroke-width:1;stroke:rgb(140,140,140)"></rect><rect data-id="feature_3_9" class="feature feature_3_9" x="270" y="260" width="30" height="30" style="fill:rgb(255,255,255);stroke-width:1;stroke:rgb(140,140,140)"></rect><rect data-id="feature_3_10" class="feature feature_3_10" x="300" y="260" width="30" height="30" style="fill:rgb(255,255,255);stroke-width:1;stroke:rgb(140,140,140)"></rect><rect data-id="feature_3_11" class="feature feature_3_11" x="330" y="260" width="30" height="30" style="fill:rgb(255,255,255);stroke-width:1;stroke:rgb(140,140,140)"></rect><rect data-id="feature_3_12" class="feature feature_3_12" x="360" y="260" width="30" height="30" style="fill:rgb(255,255,255);stroke-width:1;stroke:rgb(140,140,140)"></rect><rect data-id="feature_3_13" class="feature feature_3_13" x="390" y="260" width="30" height="30" style="fill:rgb(255,255,255);stroke-width:1;stroke:rgb(140,140,140)"></rect><path data-id="flow_4_7" class="flow flow_4_7" data-offset1="7" data-width1="1" data-rowheight="1" stroke="#8a9fec" d="M210 290 C 210 340, 210 340, 210 390 L240 390 C 240 340, 240 340, 240 290 Z" opacity="0.5" fill-opacity="null" stroke-opacity="null" stroke-width="1" "="" fill="rgb(224,234,250)"></path><path data-id="flow_4_8" class="flow flow_4_8" data-offset1="8" data-width1="1" data-rowheight="1" stroke="#8a9fec" d="M240 290 C 240 340, 240 340, 240 390 L270 390 C 270 340, 270 340, 270 290 Z" opacity="0.5" fill-opacity="null" stroke-opacity="null" stroke-width="1" "="" fill="rgb(224,234,250)"></path><path data-id="flow_4_9" class="flow flow_4_9" data-offset1="9" data-width1="1" data-rowheight="1" stroke="#8a9fec" d="M270 290 C 270 340, 270 340, 270 390 L300 390 C 300 340, 300 340, 300 290 Z" opacity="0.5" fill-opacity="null" stroke-opacity="null" stroke-width="1" "="" fill="rgb(224,234,250)"></path><path data-id="flow_4_10" class="flow flow_4_10" data-offset1="10" data-width1="1" data-rowheight="1" stroke="#8a9fec" d="M300 290 C 300 340, 300 340, 300 390 L330 390 C 330 340, 330 340, 330 290 Z" opacity="0.5" fill-opacity="null" stroke-opacity="null" stroke-width="1" "="" fill="rgb(224,234,250)"></path><path data-id="flow_4_11" class="flow flow_4_11" data-offset1="11" data-width1="1" data-rowheight="1" stroke="#8a9fec" d="M330 290 C 330 340, 330 340, 330 390 L360 390 C 360 340, 360 340, 360 290 Z" opacity="0.5" fill-opacity="null" stroke-opacity="null" stroke-width="1" "="" fill="rgb(224,234,250)"></path><path data-id="flow_4_12" class="flow flow_4_12" data-offset1="12" data-width1="1" data-rowheight="1" stroke="#8a9fec" d="M360 290 C 360 340, 360 340, 360 390 L390 390 C 390 340, 390 340, 390 290 Z" opacity="0.5" fill-opacity="null" stroke-opacity="null" stroke-width="1" "="" fill="rgb(224,234,250)"></path><path data-id="flow_4_13" class="flow flow_4_13" data-offset1="13" data-width1="1" data-rowheight="1" stroke="#8a9fec" d="M390 290 C 390 340, 390 340, 390 390 L420 390 C 420 340, 420 340, 420 290 Z" opacity="0.5" fill-opacity="null" stroke-opacity="null" stroke-width="1" "="" fill="rgb(224,234,250)"></path><rect data-id="feature_4_7" class="feature feature_4_7" x="210" y="390" width="30" height="30" style="fill:rgb(255,255,255);stroke-width:1;stroke:rgb(140,140,140)"></rect><rect data-id="feature_4_8" class="feature feature_4_8" x="240" y="390" width="30" height="30" style="fill:rgb(255,255,255);stroke-width:1;stroke:rgb(140,140,140)"></rect><rect data-id="feature_4_9" class="feature feature_4_9" x="270" y="390" width="30" height="30" style="fill:rgb(255,255,255);stroke-width:1;stroke:rgb(140,140,140)"></rect><rect data-id="feature_4_10" class="feature feature_4_10" x="300" y="390" width="30" height="30" style="fill:rgb(255,255,255);stroke-width:1;stroke:rgb(140,140,140)"></rect><rect data-id="feature_4_11" class="feature feature_4_11" x="330" y="390" width="30" height="30" style="fill:rgb(255,255,255);stroke-width:1;stroke:rgb(140,140,140)"></rect><rect data-id="feature_4_12" class="feature feature_4_12" x="360" y="390" width="30" height="30" style="fill:rgb(255,255,255);stroke-width:1;stroke:rgb(140,140,140)"></rect><rect data-id="feature_4_13" class="feature feature_4_13" x="390" y="390" width="30" height="30" style="fill:rgb(255,255,255);stroke-width:1;stroke:rgb(140,140,140)"></rect><path data-id="flow_5_8" class="flow flow_5_8" data-offset1="6" data-width1="3" data-rowheight="1" stroke="#8a9fec" d="M180 420 C 180 470, 240 470, 240 520 L270 520 C 270 470, 270 470, 270 420 Z" opacity="0.5" fill-opacity="null" stroke-opacity="null" stroke-width="1" "="" fill="rgb(224,234,250)"></path><path data-id="flow_5_9" class="flow flow_5_9" data-offset1="8" data-width1="3" data-rowheight="1" stroke="#8a9fec" d="M240 420 C 240 470, 270 470, 270 520 L300 520 C 300 470, 330 470, 330 420 Z" opacity="0.5" fill-opacity="null" stroke-opacity="null" stroke-width="1" "="" fill="rgb(224,234,250)"></path><path data-id="flow_5_10" class="flow flow_5_10" data-offset1="10" data-width1="3" data-rowheight="1" stroke="#8a9fec" d="M300 420 C 300 470, 300 470, 300 520 L330 520 C 330 470, 390 470, 390 420 Z" opacity="0.5" fill-opacity="null" stroke-opacity="null" stroke-width="1" "="" fill="rgb(224,234,250)"></path><path data-id="flow_5_11" class="flow flow_5_11" data-offset1="12" data-width1="3" data-rowheight="1" stroke="#8a9fec" d="M360 420 C 360 470, 330 470, 330 520 L360 520 C 360 470, 450 470, 450 420 Z" opacity="0.5" fill-opacity="null" stroke-opacity="null" stroke-width="1" "="" fill="rgb(224,234,250)"></path><rect data-id="feature_5_8" class="feature feature_5_8" x="240" y="520" width="30" height="30" style="fill:rgb(255,255,255);stroke-width:1;stroke:rgb(140,140,140)"></rect><rect data-id="feature_5_9" class="feature feature_5_9" x="270" y="520" width="30" height="30" style="fill:rgb(255,255,255);stroke-width:1;stroke:rgb(140,140,140)"></rect><rect data-id="feature_5_10" class="feature feature_5_10" x="300" y="520" width="30" height="30" style="fill:rgb(255,255,255);stroke-width:1;stroke:rgb(140,140,140)"></rect><rect data-id="feature_5_11" class="feature feature_5_11" x="330" y="520" width="30" height="30" style="fill:rgb(255,255,255);stroke-width:1;stroke:rgb(140,140,140)"></rect></svg>