<svg id="fig0_svg" height="295" width="500" style="position: relative; top: -75px;">
        Sorry, your browser does not support inline SVG.
      <rect data-id="feature_2_4" class="feature feature_2_4" x="120" y="130" width="30" height="30" style="fill:rgb(255,255,255);stroke-width:1;stroke:rgb(140,140,140)"></rect><rect data-id="feature_2_5" class="feature feature_2_5" x="150" y="130" width="30" height="30" style="fill:rgb(255,255,255);stroke-width:1;stroke:rgb(140,140,140)"></rect><rect data-id="feature_2_6" class="feature feature_2_6" x="180" y="130" width="30" height="30" style="fill:rgb(255,255,255);stroke-width:1;stroke:rgb(140,140,140)"></rect><rect data-id="feature_2_7" class="feature feature_2_7" x="210" y="130" width="30" height="30" style="fill:rgb(255,255,255);stroke-width:1;stroke:rgb(140,140,140)"></rect><rect data-id="feature_2_8" class="feature feature_2_8" x="240" y="130" width="30" height="30" style="fill:rgb(255,255,255);stroke-width:1;stroke:rgb(140,140,140)"></rect><rect data-id="feature_2_9" class="feature feature_2_9" x="270" y="130" width="30" height="30" style="fill:rgb(255,255,255);stroke-width:1;stroke:rgb(140,140,140)"></rect><path data-id="flow_3_5.5" class="flow flow_3_5.5" data-offset1="3" data-width1="2" data-rowheight="1" stroke="#8a9fec" d="M90 160 C 90 210, 165 210, 165 260 L195 260 C 195 210, 150 210, 150 160 Z" opacity="0.5" fill-opacity="null" stroke-opacity="null" stroke-width="1" "="" fill="rgb(224,234,250)"></path><path data-id="flow_3_6.5" class="flow flow_3_6.5" data-offset1="6" data-width1="2" data-rowheight="1" stroke="#8a9fec" d="M180 160 C 180 210, 195 210, 195 260 L225 260 C 225 210, 240 210, 240 160 Z" opacity="0.5" fill-opacity="null" stroke-opacity="null" stroke-width="1" "="" fill="rgb(224,234,250)"></path><path data-id="flow_3_7.5" class="flow flow_3_7.5" data-offset1="9" data-width1="2" data-rowheight="1" stroke="#8a9fec" d="M270 160 C 270 210, 225 210, 225 260 L255 260 C 255 210, 330 210, 330 160 Z" opacity="0.5" fill-opacity="null" stroke-opacity="null" stroke-width="1" "="" fill="rgb(224,234,250)"></path><rect data-id="feature_3_5.5" class="feature feature_3_5.5" x="165" y="260" width="30" height="30" style="fill:rgb(255,255,255);stroke-width:1;stroke:rgb(140,140,140)"></rect><rect data-id="feature_3_6.5" class="feature feature_3_6.5" x="195" y="260" width="30" height="30" style="fill:rgb(255,255,255);stroke-width:1;stroke:rgb(140,140,140)"></rect><rect data-id="feature_3_7.5" class="feature feature_3_7.5" x="225" y="260" width="30" height="30" style="fill:rgb(255,255,255);stroke-width:1;stroke:rgb(140,140,140)"></rect><path stroke="rgb(16, 150, 24)" d="M90 110 L 90 120 L 90 115 L 150 115 L 150 110 L 150 120" opacity="1.0" fill-opacity="0.0" stroke-opacity="null" stroke-width="1" fill="rgb(16, 150, 24)"></path><path stroke="rgb(16, 150, 24)" d="M180 110 L 180 120 L 180 115 L 240 115 L 240 110 L 240 120" opacity="1.0" fill-opacity="0.0" stroke-opacity="null" stroke-width="1" fill="rgb(16, 150, 24)"></path><path stroke="rgb(16, 150, 24)" d="M270 110 L 270 120 L 270 115 L 330 115 L 330 110 L 330 120" opacity="1.0" fill-opacity="0.0" stroke-opacity="null" stroke-width="1" fill="rgb(16, 150, 24)"></path><path stroke="rgb(220, 18, 18)" d="M90 170 L 90 180 L 90 175 L 180 175 L 180 170 L 180 180" opacity="1.0" fill-opacity="0.0" stroke-opacity="null" stroke-width="1" fill="rgb(220, 18, 18)"></path><path stroke="rgb(153, 0, 153)" d="M90 90 L 90 100 L 90 95 L 120 95 L 120 90 L 120 100" opacity="1.0" fill-opacity="0.0" stroke-opacity="null" stroke-width="1" fill="rgb(153, 0, 153)"></path><path stroke="rgb(153, 0, 153)" d="M300 90 L 300 100 L 300 95 L 330 95 L 330 90 L 330 100" opacity="1.0" fill-opacity="0.0" stroke-opacity="null" stroke-width="1" fill="rgb(153, 0, 153)"></path></svg>