<svg id="fig2c_svg" height="350" width="800" style="position: relative; top: -60px;">
        Sorry, your browser does not support inline SVG.
      <rect data-id="feature_2_3" class="feature feature_2_3" x="90" y="130" width="30" height="30" style="fill:rgb(255,255,255);stroke-width:1;stroke:rgb(140,140,140)"></rect><rect data-id="feature_2_4" class="feature feature_2_4" x="120" y="130" width="30" height="30" style="fill:rgb(255,255,255);stroke-width:1;stroke:rgb(140,140,140)"></rect><rect data-id="feature_2_5" class="feature feature_2_5" x="150" y="130" width="30" height="30" style="fill:rgb(255,255,255);stroke-width:1;stroke:rgb(140,140,140)"></rect><rect data-id="feature_2_6" class="feature feature_2_6" x="180" y="130" width="30" height="30" style="fill:rgb(255,255,255);stroke-width:1;stroke:rgb(140,140,140)"></rect><rect data-id="feature_2_7" class="feature feature_2_7" x="210" y="130" width="30" height="30" style="fill:rgb(255,255,255);stroke-width:1;stroke:rgb(140,140,140)"></rect><rect data-id="feature_2_8" class="feature feature_2_8" x="240" y="130" width="30" height="30" style="fill:rgb(255,255,255);stroke-width:1;stroke:rgb(140,140,140)"></rect><rect data-id="feature_2_9" class="feature feature_2_9" x="270" y="130" width="30" height="30" style="fill:rgb(255,255,255);stroke-width:1;stroke:rgb(140,140,140)"></rect><rect data-id="feature_2_10" class="feature feature_2_10" x="300" y="130" width="30" height="30" style="fill:rgb(255,255,255);stroke-width:1;stroke:rgb(140,140,140)"></rect><path data-id="flow_3_6" class="flow flow_3_6" data-offset1="3" data-width1="5" data-rowheight="1" stroke="#8a9fec" d="M90 160 C 90 210, 180 210, 180 260 L210 260 C 210 210, 240 210, 240 160 Z" opacity="0.5" fill-opacity="null" stroke-opacity="null" stroke-width="1" "="" fill="rgb(224,234,250)"></path><path data-id="flow_3_7" class="flow flow_3_7" data-offset1="6" data-width1="5" data-rowheight="1" stroke="#8a9fec" d="M180 160 C 180 210, 210 210, 210 260 L240 260 C 240 210, 330 210, 330 160 Z" opacity="0.5" fill-opacity="null" stroke-opacity="null" stroke-width="1" "="" fill="rgb(224,234,250)"></path><rect data-id="feature_3_6" class="feature feature_3_6" x="180" y="260" width="30" height="30" style="fill:rgb(255,255,255);stroke-width:1;stroke:rgb(140,140,140)"></rect><rect data-id="feature_3_7" class="feature feature_3_7" x="210" y="260" width="30" height="30" style="fill:rgb(255,255,255);stroke-width:1;stroke:rgb(140,140,140)"></rect><path stroke="rgb(220, 18, 18)" d="M180 310 L 180 320 L 180 315 L 240 315 L 240 310 L 240 320" opacity="1.0" fill-opacity="0.0" stroke-opacity="null" stroke-width="1" fill="rgb(220, 18, 18)"></path><path stroke="rgb(16, 150, 24)" d="M150 110 L 150 120 L 150 115 L 270 115 L 270 110 L 270 120" opacity="1.0" fill-opacity="0.0" stroke-opacity="null" stroke-width="1" fill="rgb(16, 150, 24)"></path><path stroke="rgb(153, 0, 153)" d="M270 90 L 270 100 L 270 95 L 330 95 L 330 90 L 330 100" opacity="1.0" fill-opacity="0.0" stroke-opacity="null" stroke-width="1" fill="rgb(153, 0, 153)"></path><path stroke="rgb(153, 0, 153)" d="M90 90 L 90 100 L 90 95 L 150 95 L 150 90 L 150 100" opacity="1.0" fill-opacity="0.0" stroke-opacity="null" stroke-width="1" fill="rgb(153, 0, 153)"></path></svg>