<svg xmlns="http://www.w3.org/2000/svg" width="0" height="0" style="position:absolute" aria-hidden="true">
  <!--
    Distill design system — service icon library
    ─────────────────────────────────────────────

    Hand-drawn line-art icons for cloud-architecture diagrams. The library is
    canonical: when adding a new service icon, add it here first.

    Style invariants (do not break):
      - viewBox 0 0 24 24
      - stroke #666 (mid-grey, matches diagram strokes), 1.5px default
      - stroke-linecap "round", stroke-linejoin "round"
      - fill="none" unless intentional (only filled accent: #666 polygon arrowheads
        on directional flow icons; no multi-color, no gradients)
      - no filters, no shadows
      - stroke widths in [1.0, 2.0]; deviate only when needed for legibility

    Naming convention: service-<slug>
      - vendor-agnostic where the visual maps cleanly across providers
        (`service-load-balancer` covers AWS ALB, GCP Cloud LB, nginx, Traefik;
        `service-object-storage` covers S3, GCS, Azure Blob)
      - vendor-specific only when the icon shape is brand-recognizable
        (`service-slack` for the # mark, `service-kubernetes` for the helm wheel)

    Usage in a consumer diagram:
      Cross-file <use href> works in HTML-embedded SVGs (same-origin) but
      NOT in markdown-rendered SVGs (GitHub serves via raw.githubusercontent.com
      and sandboxes external refs) nor in file:// contexts. For portable
      diagrams (README embeds, exported assets), copy the <symbol> blocks
      you need into the consumer SVG's own <defs>. For inline-SVG-in-HTML,
      reference cross-file: <use href="_service-icons.svg#service-dns" />.

    Index of symbols (alphabetical within category):

      EDGE & DNS              service-cdn, service-dns, service-health-check, service-users
      NETWORKING              service-api-gateway, service-firewall, service-internet, service-vpc
      COMPUTE                 service-autoscaler, service-compute, service-container,
                              service-kubernetes, service-load-balancer
      STORAGE                 service-block-storage, service-object-storage
      DATA                    service-cache, service-database, service-nosql
      IDENTITY                service-iam
      MESSAGING / FUNCTIONS   service-email, service-function, service-pubsub, service-queue
      OBSERVABILITY           service-alarms, service-dashboard, service-events,
                              service-logs, service-metrics
      EXTERNAL SINKS          service-slack
  -->

  <defs>

    <!-- ─── EDGE & DNS ─── -->

    <symbol id="service-cdn" viewBox="0 0 24 24">
      <circle cx="12" cy="12" r="6" fill="none" stroke="#666" stroke-width="1.5"/>
      <line x1="12" y1="6" x2="12" y2="2.5" stroke="#666" stroke-width="1.2" stroke-linecap="round"/>
      <polyline points="10,4.5 12,2.5 14,4.5" fill="none" stroke="#666" stroke-width="1.2" stroke-linejoin="round"/>
      <line x1="12" y1="18" x2="12" y2="21.5" stroke="#666" stroke-width="1.2" stroke-linecap="round"/>
      <polyline points="10,19.5 12,21.5 14,19.5" fill="none" stroke="#666" stroke-width="1.2" stroke-linejoin="round"/>
      <line x1="6" y1="12" x2="2.5" y2="12" stroke="#666" stroke-width="1.2" stroke-linecap="round"/>
      <polyline points="4.5,10 2.5,12 4.5,14" fill="none" stroke="#666" stroke-width="1.2" stroke-linejoin="round"/>
      <line x1="18" y1="12" x2="21.5" y2="12" stroke="#666" stroke-width="1.2" stroke-linecap="round"/>
      <polyline points="19.5,10 21.5,12 19.5,14" fill="none" stroke="#666" stroke-width="1.2" stroke-linejoin="round"/>
    </symbol>

    <symbol id="service-dns" viewBox="0 0 24 24">
      <circle cx="12" cy="12" r="8.5" fill="none" stroke="#666" stroke-width="1.5"/>
      <ellipse cx="12" cy="12" rx="8.5" ry="3.5" fill="none" stroke="#666" stroke-width="1"/>
      <line x1="12" y1="3.5" x2="12" y2="20.5" stroke="#666" stroke-width="1"/>
      <line x1="3.5" y1="12" x2="20.5" y2="12" stroke="#666" stroke-width="1"/>
    </symbol>

    <symbol id="service-health-check" viewBox="0 0 24 24">
      <polyline points="2,12 7,12 9.5,5 13.5,19 16,12 22,12" fill="none" stroke="#666" stroke-width="1.5" stroke-linecap="round" stroke-linejoin="round"/>
    </symbol>

    <symbol id="service-users" viewBox="0 0 24 24">
      <circle cx="9" cy="8" r="3" fill="none" stroke="#666" stroke-width="1.5"/>
      <path d="M3.5 19 C 3.5 14.5 6 13.5 9 13.5 C 12 13.5 14.5 14.5 14.5 19" fill="none" stroke="#666" stroke-width="1.5" stroke-linecap="round"/>
      <circle cx="16" cy="9" r="2.3" fill="none" stroke="#666" stroke-width="1.2"/>
      <path d="M14 18 C 14 15 16 14 17.8 14 C 19.6 14 21.5 15 21.5 18" fill="none" stroke="#666" stroke-width="1.2" stroke-linecap="round"/>
    </symbol>

    <!-- ─── NETWORKING ─── -->

    <!-- API gateway: vertical gate posts with arrow passing through -->
    <symbol id="service-api-gateway" viewBox="0 0 24 24">
      <line x1="7" y1="4" x2="7" y2="20" stroke="#666" stroke-width="1.8" stroke-linecap="round"/>
      <line x1="17" y1="4" x2="17" y2="20" stroke="#666" stroke-width="1.8" stroke-linecap="round"/>
      <line x1="7" y1="4" x2="17" y2="4" stroke="#666" stroke-width="1.4" stroke-linecap="round"/>
      <line x1="2.5" y1="12" x2="20" y2="12" stroke="#666" stroke-width="1.5" stroke-linecap="round"/>
      <polygon points="20,10 22.5,12 20,14" fill="#666"/>
    </symbol>

    <!-- Firewall: brick wall pattern with offset rows -->
    <symbol id="service-firewall" viewBox="0 0 24 24">
      <rect x="3" y="5" width="18" height="14" rx="0.5" fill="none" stroke="#666" stroke-width="1.5"/>
      <line x1="3" y1="9.7" x2="21" y2="9.7" stroke="#666" stroke-width="1"/>
      <line x1="3" y1="14.3" x2="21" y2="14.3" stroke="#666" stroke-width="1"/>
      <line x1="9" y1="5" x2="9" y2="9.7" stroke="#666" stroke-width="1"/>
      <line x1="15" y1="5" x2="15" y2="9.7" stroke="#666" stroke-width="1"/>
      <line x1="6" y1="9.7" x2="6" y2="14.3" stroke="#666" stroke-width="1"/>
      <line x1="12" y1="9.7" x2="12" y2="14.3" stroke="#666" stroke-width="1"/>
      <line x1="18" y1="9.7" x2="18" y2="14.3" stroke="#666" stroke-width="1"/>
      <line x1="9" y1="14.3" x2="9" y2="19" stroke="#666" stroke-width="1"/>
      <line x1="15" y1="14.3" x2="15" y2="19" stroke="#666" stroke-width="1"/>
    </symbol>

    <!-- Internet: cloud silhouette (rounded bumps) -->
    <symbol id="service-internet" viewBox="0 0 24 24">
      <path d="M6.5 18 C 4 18 2.5 16.3 2.5 14.3 C 2.5 12.5 3.8 11 5.6 10.7 C 5.7 8 7.9 6 10.5 6 C 12.5 6 14.2 7.1 15 8.7 C 15.5 8.5 16 8.4 16.6 8.4 C 19 8.4 21 10.4 21 12.8 C 21 14.4 20.1 15.8 18.8 16.5 C 18.7 17.3 18 18 17 18 Z" fill="none" stroke="#666" stroke-width="1.5" stroke-linejoin="round"/>
    </symbol>

    <!-- VPC: dashed boundary with corner brackets (private network region) -->
    <symbol id="service-vpc" viewBox="0 0 24 24">
      <rect x="3" y="3" width="18" height="18" rx="1" fill="none" stroke="#666" stroke-width="1.2" stroke-dasharray="2 2"/>
      <polyline points="3,7 3,3 7,3" fill="none" stroke="#666" stroke-width="1.8" stroke-linecap="round" stroke-linejoin="round"/>
      <polyline points="17,3 21,3 21,7" fill="none" stroke="#666" stroke-width="1.8" stroke-linecap="round" stroke-linejoin="round"/>
      <polyline points="21,17 21,21 17,21" fill="none" stroke="#666" stroke-width="1.8" stroke-linecap="round" stroke-linejoin="round"/>
      <polyline points="7,21 3,21 3,17" fill="none" stroke="#666" stroke-width="1.8" stroke-linecap="round" stroke-linejoin="round"/>
    </symbol>

    <!-- ─── COMPUTE ─── -->

    <symbol id="service-autoscaler" viewBox="0 0 24 24">
      <rect x="3" y="5" width="18" height="3.5" rx="0.5" fill="none" stroke="#666" stroke-width="1.2"/>
      <rect x="3" y="10.25" width="18" height="3.5" rx="0.5" fill="none" stroke="#666" stroke-width="1.2"/>
      <rect x="3" y="15.5" width="18" height="3.5" rx="0.5" fill="none" stroke="#666" stroke-width="1.2"/>
      <circle cx="6" cy="6.75" r="0.6" fill="#666"/>
      <circle cx="6" cy="12" r="0.6" fill="#666"/>
      <circle cx="6" cy="17.25" r="0.6" fill="#666"/>
    </symbol>

    <symbol id="service-compute" viewBox="0 0 24 24">
      <rect x="4" y="4" width="16" height="16" rx="1" fill="none" stroke="#666" stroke-width="1.5"/>
      <line x1="4" y1="9" x2="20" y2="9" stroke="#666" stroke-width="1"/>
      <line x1="4" y1="14" x2="20" y2="14" stroke="#666" stroke-width="1"/>
      <circle cx="7" cy="6.5" r="0.6" fill="#666"/>
      <circle cx="7" cy="11.5" r="0.6" fill="#666"/>
      <circle cx="7" cy="16.5" r="0.6" fill="#666"/>
    </symbol>

    <!-- Container: three nested squares (Docker / OCI container) -->
    <symbol id="service-container" viewBox="0 0 24 24">
      <rect x="3" y="3" width="18" height="18" rx="1" fill="none" stroke="#666" stroke-width="1.5"/>
      <rect x="6" y="6" width="12" height="12" rx="0.8" fill="none" stroke="#666" stroke-width="1.2"/>
      <rect x="9" y="9" width="6" height="6" rx="0.5" fill="none" stroke="#666" stroke-width="1"/>
    </symbol>

    <!-- Kubernetes: 7-spoke wheel with central hexagon (helm mark) -->
    <symbol id="service-kubernetes" viewBox="0 0 24 24">
      <circle cx="12" cy="12" r="9" fill="none" stroke="#666" stroke-width="1.5"/>
      <polygon points="12,7.5 16,9.8 16,14.2 12,16.5 8,14.2 8,9.8" fill="none" stroke="#666" stroke-width="1.2" stroke-linejoin="round"/>
      <line x1="12" y1="3" x2="12" y2="7.5" stroke="#666" stroke-width="1"/>
      <line x1="20.8" y1="9.2" x2="16" y2="9.8" stroke="#666" stroke-width="1"/>
      <line x1="19.4" y1="18.5" x2="16" y2="14.2" stroke="#666" stroke-width="1"/>
      <line x1="14.6" y1="20.8" x2="12" y2="16.5" stroke="#666" stroke-width="1"/>
      <line x1="9.4" y1="20.8" x2="8" y2="14.2" stroke="#666" stroke-width="1"/>
      <line x1="4.6" y1="18.5" x2="8" y2="9.8" stroke="#666" stroke-width="1"/>
      <line x1="3.2" y1="9.2" x2="8" y2="9.8" stroke="#666" stroke-width="1"/>
    </symbol>

    <symbol id="service-load-balancer" viewBox="0 0 24 24">
      <line x1="6" y1="3" x2="6" y2="21" stroke="#666" stroke-width="2" stroke-linecap="round"/>
      <line x1="6" y1="6" x2="18" y2="6" stroke="#666" stroke-width="1.4" stroke-linecap="round"/>
      <line x1="6" y1="12" x2="18" y2="12" stroke="#666" stroke-width="1.4" stroke-linecap="round"/>
      <line x1="6" y1="18" x2="18" y2="18" stroke="#666" stroke-width="1.4" stroke-linecap="round"/>
      <polygon points="18,4 21,6 18,8" fill="#666"/>
      <polygon points="18,10 21,12 18,14" fill="#666"/>
      <polygon points="18,16 21,18 18,20" fill="#666"/>
    </symbol>

    <!-- ─── STORAGE ─── -->

    <!-- Block storage: stacked disk platters seen in profile -->
    <symbol id="service-block-storage" viewBox="0 0 24 24">
      <ellipse cx="12" cy="6" rx="7" ry="2.2" fill="none" stroke="#666" stroke-width="1.5"/>
      <path d="M5 6 V 9 C 5 10.2 8 11.2 12 11.2 C 16 11.2 19 10.2 19 9 V 6" fill="none" stroke="#666" stroke-width="1.5"/>
      <ellipse cx="12" cy="12" rx="7" ry="2.2" fill="none" stroke="#666" stroke-width="1.5"/>
      <path d="M5 12 V 15 C 5 16.2 8 17.2 12 17.2 C 16 17.2 19 16.2 19 15 V 12" fill="none" stroke="#666" stroke-width="1.5"/>
      <ellipse cx="12" cy="18" rx="7" ry="2.2" fill="none" stroke="#666" stroke-width="1.5"/>
      <circle cx="12" cy="6" r="0.6" fill="#666"/>
      <circle cx="12" cy="12" r="0.6" fill="#666"/>
      <circle cx="12" cy="18" r="0.6" fill="#666"/>
    </symbol>

    <!-- Object storage: bucket profile with rim handle and contents line -->
    <symbol id="service-object-storage" viewBox="0 0 24 24">
      <path d="M5 7 L 7 20 C 7 20.6 8.5 21 12 21 C 15.5 21 17 20.6 17 20 L 19 7 Z" fill="none" stroke="#666" stroke-width="1.5" stroke-linejoin="round"/>
      <ellipse cx="12" cy="7" rx="7" ry="1.8" fill="none" stroke="#666" stroke-width="1.5"/>
      <path d="M8 4 C 8 2.8 9.5 2.5 12 2.5 C 14.5 2.5 16 2.8 16 4" fill="none" stroke="#666" stroke-width="1.2" stroke-linecap="round"/>
      <path d="M6.5 13 C 8.5 13.6 11 14 12 14 C 13 14 15.5 13.6 17.5 13" fill="none" stroke="#666" stroke-width="1"/>
    </symbol>

    <!-- ─── DATA ─── -->

    <!-- Cache: cylinder with lightning bolt accent (Redis / Memcached) -->
    <symbol id="service-cache" viewBox="0 0 24 24">
      <ellipse cx="12" cy="6" rx="7" ry="2.5" fill="none" stroke="#666" stroke-width="1.5"/>
      <path d="M5 6 V 18 C 5 19.4 8 20.5 12 20.5 C 16 20.5 19 19.4 19 18 V 6" fill="none" stroke="#666" stroke-width="1.5"/>
      <path d="M13 8.5 L 9.5 14 H 12 L 10.5 18 L 14.5 12 H 12 L 13.5 8.5 Z" fill="none" stroke="#666" stroke-width="1.4" stroke-linejoin="round"/>
    </symbol>

    <symbol id="service-database" viewBox="0 0 24 24">
      <ellipse cx="12" cy="6" rx="7" ry="2.5" fill="none" stroke="#666" stroke-width="1.5"/>
      <path d="M5 6 V 18 C 5 19.4 8 20.5 12 20.5 C 16 20.5 19 19.4 19 18 V 6" fill="none" stroke="#666" stroke-width="1.5"/>
      <path d="M5 11 C 5 12.4 8 13.5 12 13.5 C 16 13.5 19 12.4 19 11" fill="none" stroke="#666" stroke-width="1"/>
      <path d="M5 14.5 C 5 15.9 8 17 12 17 C 16 17 19 15.9 19 14.5" fill="none" stroke="#666" stroke-width="1"/>
    </symbol>

    <!-- NoSQL: cylinder with column-grid pattern (document / key-value store) -->
    <symbol id="service-nosql" viewBox="0 0 24 24">
      <ellipse cx="12" cy="6" rx="7" ry="2.5" fill="none" stroke="#666" stroke-width="1.5"/>
      <path d="M5 6 V 18 C 5 19.4 8 20.5 12 20.5 C 16 20.5 19 19.4 19 18 V 6" fill="none" stroke="#666" stroke-width="1.5"/>
      <path d="M5 11 C 5 12.4 8 13.5 12 13.5 C 16 13.5 19 12.4 19 11" fill="none" stroke="#666" stroke-width="1"/>
      <line x1="8" y1="14.5" x2="8" y2="17.5" stroke="#666" stroke-width="1"/>
      <line x1="12" y1="14" x2="12" y2="17.5" stroke="#666" stroke-width="1"/>
      <line x1="16" y1="14.5" x2="16" y2="17.5" stroke="#666" stroke-width="1"/>
      <line x1="6" y1="16" x2="18" y2="16" stroke="#666" stroke-width="1"/>
    </symbol>

    <!-- ─── IDENTITY ─── -->

    <!-- IAM: key with circular bow paired with padlock body -->
    <symbol id="service-iam" viewBox="0 0 24 24">
      <circle cx="7" cy="9" r="3" fill="none" stroke="#666" stroke-width="1.5"/>
      <line x1="9.1" y1="11.1" x2="14" y2="16" stroke="#666" stroke-width="1.5" stroke-linecap="round"/>
      <line x1="11.5" y1="13.5" x2="13" y2="15" stroke="#666" stroke-width="1.2" stroke-linecap="round"/>
      <line x1="13.2" y1="15.2" x2="14.7" y2="16.7" stroke="#666" stroke-width="1.2" stroke-linecap="round"/>
      <rect x="14" y="14" width="7" height="6" rx="0.8" fill="none" stroke="#666" stroke-width="1.5"/>
      <path d="M15.5 14 V 12.5 C 15.5 11 16.5 10 17.5 10 C 18.5 10 19.5 11 19.5 12.5 V 14" fill="none" stroke="#666" stroke-width="1.2"/>
    </symbol>

    <!-- ─── MESSAGING / FUNCTIONS ─── -->

    <symbol id="service-email" viewBox="0 0 24 24">
      <rect x="3" y="6" width="18" height="13" rx="1" fill="none" stroke="#666" stroke-width="1.5"/>
      <polyline points="3.5,7 12,14 20.5,7" fill="none" stroke="#666" stroke-width="1.2" stroke-linejoin="round"/>
    </symbol>

    <symbol id="service-function" viewBox="0 0 24 24">
      <text x="12" y="20" font-family="Cambria, Georgia, serif" font-size="22" font-weight="500" font-style="italic" fill="#666" text-anchor="middle">λ</text>
    </symbol>

    <symbol id="service-pubsub" viewBox="0 0 24 24">
      <circle cx="6" cy="12" r="2.2" fill="none" stroke="#666" stroke-width="1.5"/>
      <line x1="8.2" y1="12" x2="17" y2="6" stroke="#666" stroke-width="1.2" stroke-linecap="round"/>
      <line x1="8.2" y1="12" x2="17" y2="12" stroke="#666" stroke-width="1.2" stroke-linecap="round"/>
      <line x1="8.2" y1="12" x2="17" y2="18" stroke="#666" stroke-width="1.2" stroke-linecap="round"/>
      <circle cx="18.5" cy="6" r="1.6" fill="none" stroke="#666" stroke-width="1.2"/>
      <circle cx="18.5" cy="12" r="1.6" fill="none" stroke="#666" stroke-width="1.2"/>
      <circle cx="18.5" cy="18" r="1.6" fill="none" stroke="#666" stroke-width="1.2"/>
    </symbol>

    <!-- Queue: three sequential boxes with directional arrow (FIFO) -->
    <symbol id="service-queue" viewBox="0 0 24 24">
      <rect x="2.5" y="8" width="5" height="8" rx="0.5" fill="none" stroke="#666" stroke-width="1.4"/>
      <rect x="8.5" y="8" width="5" height="8" rx="0.5" fill="none" stroke="#666" stroke-width="1.4"/>
      <rect x="14.5" y="8" width="5" height="8" rx="0.5" fill="none" stroke="#666" stroke-width="1.4"/>
      <line x1="20" y1="12" x2="22.5" y2="12" stroke="#666" stroke-width="1.4" stroke-linecap="round"/>
      <polygon points="21.5,10.5 23.5,12 21.5,13.5" fill="#666"/>
    </symbol>

    <!-- ─── OBSERVABILITY ─── -->

    <symbol id="service-alarms" viewBox="0 0 24 24">
      <path d="M12 4 C 16 4 16.5 9 16.5 13 L 18.5 16 H 5.5 L 7.5 13 C 7.5 9 8 4 12 4 Z" fill="none" stroke="#666" stroke-width="1.5" stroke-linejoin="round"/>
      <line x1="9.5" y1="18" x2="14.5" y2="18" stroke="#666" stroke-width="1.5" stroke-linecap="round"/>
      <path d="M10.5 19 C 10.5 20.5 13.5 20.5 13.5 19" fill="none" stroke="#666" stroke-width="1.2"/>
      <line x1="12" y1="2" x2="12" y2="4" stroke="#666" stroke-width="1.2" stroke-linecap="round"/>
    </symbol>

    <symbol id="service-dashboard" viewBox="0 0 24 24">
      <rect x="3" y="3" width="8.5" height="6" rx="0.5" fill="none" stroke="#666" stroke-width="1.2"/>
      <rect x="12.5" y="3" width="8.5" height="10" rx="0.5" fill="none" stroke="#666" stroke-width="1.2"/>
      <rect x="3" y="11" width="8.5" height="10" rx="0.5" fill="none" stroke="#666" stroke-width="1.2"/>
      <rect x="12.5" y="15" width="8.5" height="6" rx="0.5" fill="none" stroke="#666" stroke-width="1.2"/>
      <line x1="5" y1="13.5" x2="9.5" y2="13.5" stroke="#666" stroke-width="1"/>
      <line x1="5" y1="16.5" x2="9.5" y2="16.5" stroke="#666" stroke-width="1"/>
    </symbol>

    <symbol id="service-events" viewBox="0 0 24 24">
      <circle cx="6" cy="12" r="2" fill="none" stroke="#666" stroke-width="1.5"/>
      <line x1="8" y1="12" x2="17" y2="6" stroke="#666" stroke-width="1.2" stroke-linecap="round"/>
      <line x1="8" y1="12" x2="17" y2="12" stroke="#666" stroke-width="1.2" stroke-linecap="round"/>
      <line x1="8" y1="12" x2="17" y2="18" stroke="#666" stroke-width="1.2" stroke-linecap="round"/>
      <circle cx="18" cy="6" r="1.6" fill="none" stroke="#666" stroke-width="1.2"/>
      <circle cx="18" cy="12" r="1.6" fill="none" stroke="#666" stroke-width="1.2"/>
      <circle cx="18" cy="18" r="1.6" fill="none" stroke="#666" stroke-width="1.2"/>
    </symbol>

    <symbol id="service-logs" viewBox="0 0 24 24">
      <rect x="5" y="3" width="14" height="18" rx="1" fill="none" stroke="#666" stroke-width="1.5"/>
      <line x1="8" y1="8" x2="16" y2="8" stroke="#666" stroke-width="1"/>
      <line x1="8" y1="11.5" x2="16" y2="11.5" stroke="#666" stroke-width="1"/>
      <line x1="8" y1="15" x2="16" y2="15" stroke="#666" stroke-width="1"/>
      <line x1="8" y1="18.5" x2="13" y2="18.5" stroke="#666" stroke-width="1"/>
    </symbol>

    <symbol id="service-metrics" viewBox="0 0 24 24">
      <line x1="3" y1="20" x2="21" y2="20" stroke="#666" stroke-width="1.2" stroke-linecap="round"/>
      <rect x="5" y="14" width="3.5" height="6" fill="none" stroke="#666" stroke-width="1.2"/>
      <rect x="10.25" y="9" width="3.5" height="11" fill="none" stroke="#666" stroke-width="1.2"/>
      <rect x="15.5" y="5" width="3.5" height="15" fill="none" stroke="#666" stroke-width="1.2"/>
    </symbol>

    <!-- ─── EXTERNAL SINKS ─── -->

    <symbol id="service-slack" viewBox="0 0 24 24">
      <line x1="9" y1="3" x2="6" y2="21" stroke="#666" stroke-width="1.8" stroke-linecap="round"/>
      <line x1="18" y1="3" x2="15" y2="21" stroke="#666" stroke-width="1.8" stroke-linecap="round"/>
      <line x1="3.5" y1="9" x2="21.5" y2="9" stroke="#666" stroke-width="1.8" stroke-linecap="round"/>
      <line x1="2.5" y1="15" x2="20.5" y2="15" stroke="#666" stroke-width="1.8" stroke-linecap="round"/>
    </symbol>

  </defs>
</svg>
