<svg viewBox="0 0 984 240">
    <defs>
      <marker id="edgeArrowhead" viewBox="0 -5 10 10" markerWidth="6" markerHeight="10" orient="auto" refX="5" refY="0">
        <path d="M0,-5L5,0L0,5" fill="none" stroke="#666"></path>
      </marker>
      <marker id="edgeArrowheadLeft" viewBox="0 -5 10 10" markerWidth="6" markerHeight="10" orient="auto" refX="0" refY="0">
        <path d="M5,-5L0,0L5,5" fill="none" stroke="#666"></path>
      </marker>
    </defs>
    <g class="labels" style="display: none;" transform="translate(994, 0)">
      <text transform="translate(0, 20)">output text</text>
      <text transform="translate(0, 65)">network B</text>
      <text transform="translate(0, 185)">network A</text>
      <text transform="translate(0, 233)">input text</text>
    </g>
  <g transform="translate(10,36)"><g transform="translate(0, 120)"><rect class="background" width="964" height="54.96296296296296" rx="7" ry="7"></rect><g class="cell" transform="translate(10, 10)"><rect class="shadow" transform="translate(1, 3)" width="34.96296296296296" height="34.96296296296296" rx="4" ry="4"></rect><rect class="node" width="34.96296296296296" height="34.96296296296296" rx="4" ry="4"></rect><line class="arrow" marker-start="url(#edgeArrowheadLeft)" marker-end="url(#edgeArrowhead)" x1="42.96296296296296" x2="64.96296296296296" y1="17.48148148148148" y2="17.48148148148148"></line><line class="arrow" marker-end="url(#edgeArrowhead)" transform="translate(17.48148148148148, 0)" y1="52.96296296296296" y2="38.96296296296296"></line><text dx="17.48148148148148" dy="18.48148148148148" style="opacity: 0.8;">A</text><text class="label" dx="17.48148148148148" dy="66.96296296296296">the</text><rect transform="translate(-17.48148148148148,-43.724137931034484)" width="69.92592592592592" height="87.48148148148148" style="opacity: 0;"></rect></g><g class="cell" transform="translate(79.92592592592592, 10)"><rect class="shadow" transform="translate(1, 3)" width="34.96296296296296" height="34.96296296296296" rx="4" ry="4"></rect><rect class="node" width="34.96296296296296" height="34.96296296296296" rx="4" ry="4"></rect><line class="arrow" marker-start="url(#edgeArrowheadLeft)" marker-end="url(#edgeArrowhead)" x1="42.96296296296296" x2="64.96296296296296" y1="17.48148148148148" y2="17.48148148148148"></line><line class="arrow" marker-end="url(#edgeArrowhead)" transform="translate(17.48148148148148, 0)" y1="52.96296296296296" y2="38.96296296296296"></line><text dx="17.48148148148148" dy="18.48148148148148" style="opacity: 0.8;">A</text><text class="label" dx="17.48148148148148" dy="66.96296296296296">agreement</text><rect transform="translate(-17.48148148148148,-43.724137931034484)" width="69.92592592592592" height="87.48148148148148" style="opacity: 0;"></rect></g><g class="cell" transform="translate(149.85185185185185, 10)"><rect class="shadow" transform="translate(1, 3)" width="34.96296296296296" height="34.96296296296296" rx="4" ry="4"></rect><rect class="node" width="34.96296296296296" height="34.96296296296296" rx="4" ry="4"></rect><line class="arrow" marker-start="url(#edgeArrowheadLeft)" marker-end="url(#edgeArrowhead)" x1="42.96296296296296" x2="64.96296296296296" y1="17.48148148148148" y2="17.48148148148148"></line><line class="arrow" marker-end="url(#edgeArrowhead)" transform="translate(17.48148148148148, 0)" y1="52.96296296296296" y2="38.96296296296296"></line><text dx="17.48148148148148" dy="18.48148148148148" style="opacity: 0.8;">A</text><text class="label" dx="17.48148148148148" dy="66.96296296296296">on</text><rect transform="translate(-17.48148148148148,-43.724137931034484)" width="69.92592592592592" height="87.48148148148148" style="opacity: 0;"></rect></g><g class="cell" transform="translate(219.77777777777777, 10)"><rect class="shadow" transform="translate(1, 3)" width="34.96296296296296" height="34.96296296296296" rx="4" ry="4"></rect><rect class="node" width="34.96296296296296" height="34.96296296296296" rx="4" ry="4"></rect><line class="arrow" marker-start="url(#edgeArrowheadLeft)" marker-end="url(#edgeArrowhead)" x1="42.96296296296296" x2="64.96296296296296" y1="17.48148148148148" y2="17.48148148148148"></line><line class="arrow" marker-end="url(#edgeArrowhead)" transform="translate(17.48148148148148, 0)" y1="52.96296296296296" y2="38.96296296296296"></line><text dx="17.48148148148148" dy="18.48148148148148" style="opacity: 0.8;">A</text><text class="label" dx="17.48148148148148" dy="66.96296296296296">the</text><rect transform="translate(-17.48148148148148,-43.724137931034484)" width="69.92592592592592" height="87.48148148148148" style="opacity: 0;"></rect></g><g class="cell" transform="translate(289.7037037037037, 10)"><rect class="shadow" transform="translate(1, 3)" width="34.96296296296296" height="34.96296296296296" rx="4" ry="4"></rect><rect class="node" width="34.96296296296296" height="34.96296296296296" rx="4" ry="4"></rect><line class="arrow" marker-start="url(#edgeArrowheadLeft)" marker-end="url(#edgeArrowhead)" x1="42.96296296296296" x2="64.96296296296296" y1="17.48148148148148" y2="17.48148148148148"></line><line class="arrow" marker-end="url(#edgeArrowhead)" transform="translate(17.48148148148148, 0)" y1="52.96296296296296" y2="38.96296296296296"></line><text dx="17.48148148148148" dy="18.48148148148148" style="opacity: 0.8;">A</text><text class="label" dx="17.48148148148148" dy="66.96296296296296">European</text><rect transform="translate(-17.48148148148148,-43.724137931034484)" width="69.92592592592592" height="87.48148148148148" style="opacity: 0;"></rect></g><g class="cell" transform="translate(359.6296296296296, 10)"><rect class="shadow" transform="translate(1, 3)" width="34.96296296296296" height="34.96296296296296" rx="4" ry="4"></rect><rect class="node" width="34.96296296296296" height="34.96296296296296" rx="4" ry="4"></rect><line class="arrow" marker-start="url(#edgeArrowheadLeft)" marker-end="url(#edgeArrowhead)" x1="42.96296296296296" x2="64.96296296296296" y1="17.48148148148148" y2="17.48148148148148"></line><line class="arrow" marker-end="url(#edgeArrowhead)" transform="translate(17.48148148148148, 0)" y1="52.96296296296296" y2="38.96296296296296"></line><text dx="17.48148148148148" dy="18.48148148148148" style="opacity: 0.8;">A</text><text class="label" dx="17.48148148148148" dy="66.96296296296296">Economic</text><rect transform="translate(-17.48148148148148,-43.724137931034484)" width="69.92592592592592" height="87.48148148148148" style="opacity: 0;"></rect></g><g class="cell" transform="translate(429.55555555555554, 10)"><rect class="shadow" transform="translate(1, 3)" width="34.96296296296296" height="34.96296296296296" rx="4" ry="4"></rect><rect class="node" width="34.96296296296296" height="34.96296296296296" rx="4" ry="4"></rect><line class="arrow" marker-start="url(#edgeArrowheadLeft)" marker-end="url(#edgeArrowhead)" x1="42.96296296296296" x2="64.96296296296296" y1="17.48148148148148" y2="17.48148148148148"></line><line class="arrow" marker-end="url(#edgeArrowhead)" transform="translate(17.48148148148148, 0)" y1="52.96296296296296" y2="38.96296296296296"></line><text dx="17.48148148148148" dy="18.48148148148148" style="opacity: 0.8;">A</text><text class="label" dx="17.48148148148148" dy="66.96296296296296">Area</text><rect transform="translate(-17.48148148148148,-43.724137931034484)" width="69.92592592592592" height="87.48148148148148" style="opacity: 0;"></rect></g><g class="cell" transform="translate(499.48148148148147, 10)"><rect class="shadow" transform="translate(1, 3)" width="34.96296296296296" height="34.96296296296296" rx="4" ry="4"></rect><rect class="node" width="34.96296296296296" height="34.96296296296296" rx="4" ry="4"></rect><line class="arrow" marker-start="url(#edgeArrowheadLeft)" marker-end="url(#edgeArrowhead)" x1="42.96296296296296" x2="64.96296296296296" y1="17.48148148148148" y2="17.48148148148148"></line><line class="arrow" marker-end="url(#edgeArrowhead)" transform="translate(17.48148148148148, 0)" y1="52.96296296296296" y2="38.96296296296296"></line><text dx="17.48148148148148" dy="18.48148148148148" style="opacity: 0.8;">A</text><text class="label" dx="17.48148148148148" dy="66.96296296296296">was</text><rect transform="translate(-17.48148148148148,-43.724137931034484)" width="69.92592592592592" height="87.48148148148148" style="opacity: 0;"></rect></g><g class="cell" transform="translate(569.4074074074074, 10)"><rect class="shadow" transform="translate(1, 3)" width="34.96296296296296" height="34.96296296296296" rx="4" ry="4"></rect><rect class="node" width="34.96296296296296" height="34.96296296296296" rx="4" ry="4"></rect><line class="arrow" marker-start="url(#edgeArrowheadLeft)" marker-end="url(#edgeArrowhead)" x1="42.96296296296296" x2="64.96296296296296" y1="17.48148148148148" y2="17.48148148148148"></line><line class="arrow" marker-end="url(#edgeArrowhead)" transform="translate(17.48148148148148, 0)" y1="52.96296296296296" y2="38.96296296296296"></line><text dx="17.48148148148148" dy="18.48148148148148" style="opacity: 0.8;">A</text><text class="label" dx="17.48148148148148" dy="66.96296296296296">signed</text><rect transform="translate(-17.48148148148148,-43.724137931034484)" width="69.92592592592592" height="87.48148148148148" style="opacity: 0;"></rect></g><g class="cell" transform="translate(639.3333333333333, 10)"><rect class="shadow" transform="translate(1, 3)" width="34.96296296296296" height="34.96296296296296" rx="4" ry="4"></rect><rect class="node" width="34.96296296296296" height="34.96296296296296" rx="4" ry="4"></rect><line class="arrow" marker-start="url(#edgeArrowheadLeft)" marker-end="url(#edgeArrowhead)" x1="42.96296296296296" x2="64.96296296296296" y1="17.48148148148148" y2="17.48148148148148"></line><line class="arrow" marker-end="url(#edgeArrowhead)" transform="translate(17.48148148148148, 0)" y1="52.96296296296296" y2="38.96296296296296"></line><text dx="17.48148148148148" dy="18.48148148148148" style="opacity: 0.8;">A</text><text class="label" dx="17.48148148148148" dy="66.96296296296296">in</text><rect transform="translate(-17.48148148148148,-43.724137931034484)" width="69.92592592592592" height="87.48148148148148" style="opacity: 0;"></rect></g><g class="cell" transform="translate(709.2592592592592, 10)"><rect class="shadow" transform="translate(1, 3)" width="34.96296296296296" height="34.96296296296296" rx="4" ry="4"></rect><rect class="node" width="34.96296296296296" height="34.96296296296296" rx="4" ry="4"></rect><line class="arrow" marker-start="url(#edgeArrowheadLeft)" marker-end="url(#edgeArrowhead)" x1="42.96296296296296" x2="64.96296296296296" y1="17.48148148148148" y2="17.48148148148148"></line><line class="arrow" marker-end="url(#edgeArrowhead)" transform="translate(17.48148148148148, 0)" y1="52.96296296296296" y2="38.96296296296296"></line><text dx="17.48148148148148" dy="18.48148148148148" style="opacity: 0.8;">A</text><text class="label" dx="17.48148148148148" dy="66.96296296296296">August</text><rect transform="translate(-17.48148148148148,-43.724137931034484)" width="69.92592592592592" height="87.48148148148148" style="opacity: 0;"></rect></g><g class="cell" transform="translate(779.1851851851852, 10)"><rect class="shadow" transform="translate(1, 3)" width="34.96296296296296" height="34.96296296296296" rx="4" ry="4"></rect><rect class="node" width="34.96296296296296" height="34.96296296296296" rx="4" ry="4"></rect><line class="arrow" marker-start="url(#edgeArrowheadLeft)" marker-end="url(#edgeArrowhead)" x1="42.96296296296296" x2="64.96296296296296" y1="17.48148148148148" y2="17.48148148148148"></line><line class="arrow" marker-end="url(#edgeArrowhead)" transform="translate(17.48148148148148, 0)" y1="52.96296296296296" y2="38.96296296296296"></line><text dx="17.48148148148148" dy="18.48148148148148" style="opacity: 0.8;">A</text><text class="label" dx="17.48148148148148" dy="66.96296296296296">1992</text><rect transform="translate(-17.48148148148148,-43.724137931034484)" width="69.92592592592592" height="87.48148148148148" style="opacity: 0;"></rect></g><g class="cell" transform="translate(849.1111111111111, 10)"><rect class="shadow" transform="translate(1, 3)" width="34.96296296296296" height="34.96296296296296" rx="4" ry="4"></rect><rect class="node" width="34.96296296296296" height="34.96296296296296" rx="4" ry="4"></rect><line class="arrow" marker-start="url(#edgeArrowheadLeft)" marker-end="url(#edgeArrowhead)" x1="42.96296296296296" x2="64.96296296296296" y1="17.48148148148148" y2="17.48148148148148"></line><line class="arrow" marker-end="url(#edgeArrowhead)" transform="translate(17.48148148148148, 0)" y1="52.96296296296296" y2="38.96296296296296"></line><text dx="17.48148148148148" dy="18.48148148148148" style="opacity: 0.8;">A</text><text class="label" dx="17.48148148148148" dy="66.96296296296296">.</text><rect transform="translate(-17.48148148148148,-43.724137931034484)" width="69.92592592592592" height="87.48148148148148" style="opacity: 0;"></rect></g><g class="cell" transform="translate(919.037037037037, 10)"><rect class="shadow" transform="translate(1, 3)" width="34.96296296296296" height="34.96296296296296" rx="4" ry="4"></rect><rect class="node" width="34.96296296296296" height="34.96296296296296" rx="4" ry="4"></rect><line class="arrow" marker-start="url(#edgeArrowheadLeft)" marker-end="url(#edgeArrowhead)" x1="42.96296296296296" x2="64.96296296296296" y1="17.48148148148148" y2="17.48148148148148"></line><line class="arrow" marker-end="url(#edgeArrowhead)" transform="translate(17.48148148148148, 0)" y1="52.96296296296296" y2="38.96296296296296"></line><text dx="17.48148148148148" dy="18.48148148148148" style="opacity: 0.8;">A</text><text class="label" dx="17.48148148148148" dy="66.96296296296296">&lt;end&gt;</text><rect transform="translate(-17.48148148148148,-43.724137931034484)" width="69.92592592592592" height="87.48148148148148" style="opacity: 0;"></rect></g></g><g><rect class="background" width="964" height="52.55172413793103" rx="7" ry="7"></rect><g class="cell" transform="translate(10.000000000000057,10)"><rect class="shadow" transform="translate(1, 3)" width="32.55172413793103" height="32.55172413793103" rx="4" ry="4"></rect><rect class="node" width="32.55172413793103" height="32.55172413793103" rx="4" ry="4"></rect><line class="arrow" marker-end="url(#edgeArrowhead)" x1="32.55172413793103" x2="56.55172413793103" y1="16.275862068965516" y2="16.275862068965516"></line><line class="arrow" marker-end="url(#edgeArrowhead)" transform="translate(16.275862068965516, 0)" y1="0" y2="-15"></line><text dx="16.275862068965516" dy="17.275862068965516" style="opacity: 0.8;">B</text><text class="label" dx="16.275862068965516" dy="-29">l’</text><rect transform="translate(-16.275862068965516,-10)" width="65.10344827586206" height="86.27586206896552" style="opacity: 0;"></rect></g><g class="cell" transform="translate(75.10344827586212,10)"><rect class="shadow" transform="translate(1, 3)" width="32.55172413793103" height="32.55172413793103" rx="4" ry="4"></rect><rect class="node" width="32.55172413793103" height="32.55172413793103" rx="4" ry="4"></rect><line class="arrow" marker-end="url(#edgeArrowhead)" x1="32.55172413793103" x2="56.55172413793103" y1="16.275862068965516" y2="16.275862068965516"></line><line class="arrow" marker-end="url(#edgeArrowhead)" transform="translate(16.275862068965516, 0)" y1="0" y2="-15"></line><text dx="16.275862068965516" dy="17.275862068965516" style="opacity: 0.8;">B</text><text class="label" dx="16.275862068965516" dy="-29">accord</text><rect transform="translate(-16.275862068965516,-10)" width="65.10344827586206" height="86.27586206896552" style="opacity: 0;"></rect></g><g class="cell" transform="translate(140.20689655172418,10)"><rect class="shadow" transform="translate(1, 3)" width="32.55172413793103" height="32.55172413793103" rx="4" ry="4"></rect><rect class="node" width="32.55172413793103" height="32.55172413793103" rx="4" ry="4"></rect><line class="arrow" marker-end="url(#edgeArrowhead)" x1="32.55172413793103" x2="56.55172413793103" y1="16.275862068965516" y2="16.275862068965516"></line><line class="arrow" marker-end="url(#edgeArrowhead)" transform="translate(16.275862068965516, 0)" y1="0" y2="-15"></line><text dx="16.275862068965516" dy="17.275862068965516" style="opacity: 0.8;">B</text><text class="label" dx="16.275862068965516" dy="-29">sur</text><rect transform="translate(-16.275862068965516,-10)" width="65.10344827586206" height="86.27586206896552" style="opacity: 0;"></rect></g><g class="cell" transform="translate(205.31034482758625,10)"><rect class="shadow" transform="translate(1, 3)" width="32.55172413793103" height="32.55172413793103" rx="4" ry="4"></rect><rect class="node" width="32.55172413793103" height="32.55172413793103" rx="4" ry="4"></rect><line class="arrow" marker-end="url(#edgeArrowhead)" x1="32.55172413793103" x2="56.55172413793103" y1="16.275862068965516" y2="16.275862068965516"></line><line class="arrow" marker-end="url(#edgeArrowhead)" transform="translate(16.275862068965516, 0)" y1="0" y2="-15"></line><text dx="16.275862068965516" dy="17.275862068965516" style="opacity: 0.8;">B</text><text class="label" dx="16.275862068965516" dy="-29">la</text><rect transform="translate(-16.275862068965516,-10)" width="65.10344827586206" height="86.27586206896552" style="opacity: 0;"></rect></g><g class="cell" transform="translate(270.4137931034483,10)"><rect class="shadow" transform="translate(1, 3)" width="32.55172413793103" height="32.55172413793103" rx="4" ry="4"></rect><rect class="node" width="32.55172413793103" height="32.55172413793103" rx="4" ry="4"></rect><line class="arrow" marker-end="url(#edgeArrowhead)" x1="32.55172413793103" x2="56.55172413793103" y1="16.275862068965516" y2="16.275862068965516"></line><line class="arrow" marker-end="url(#edgeArrowhead)" transform="translate(16.275862068965516, 0)" y1="0" y2="-15"></line><text dx="16.275862068965516" dy="17.275862068965516" style="opacity: 0.8;">B</text><text class="label" dx="16.275862068965516" dy="-29">zone</text><rect transform="translate(-16.275862068965516,-10)" width="65.10344827586206" height="86.27586206896552" style="opacity: 0;"></rect></g><g class="cell" transform="translate(335.5172413793104,10)"><rect class="shadow" transform="translate(1, 3)" width="32.55172413793103" height="32.55172413793103" rx="4" ry="4"></rect><rect class="node" width="32.55172413793103" height="32.55172413793103" rx="4" ry="4"></rect><line class="arrow" marker-end="url(#edgeArrowhead)" x1="32.55172413793103" x2="56.55172413793103" y1="16.275862068965516" y2="16.275862068965516"></line><line class="arrow" marker-end="url(#edgeArrowhead)" transform="translate(16.275862068965516, 0)" y1="0" y2="-15"></line><text dx="16.275862068965516" dy="17.275862068965516" style="opacity: 0.8;">B</text><text class="label" dx="16.275862068965516" dy="-29">économique</text><rect transform="translate(-16.275862068965516,-10)" width="65.10344827586206" height="86.27586206896552" style="opacity: 0;"></rect></g><g class="cell" transform="translate(400.62068965517244,10)"><rect class="shadow" transform="translate(1, 3)" width="32.55172413793103" height="32.55172413793103" rx="4" ry="4"></rect><rect class="node" width="32.55172413793103" height="32.55172413793103" rx="4" ry="4"></rect><line class="arrow" marker-end="url(#edgeArrowhead)" x1="32.55172413793103" x2="56.55172413793103" y1="16.275862068965516" y2="16.275862068965516"></line><line class="arrow" marker-end="url(#edgeArrowhead)" transform="translate(16.275862068965516, 0)" y1="0" y2="-15"></line><text dx="16.275862068965516" dy="17.275862068965516" style="opacity: 0.8;">B</text><text class="label" dx="31.275862068965516" dy="-29">européenne</text><rect transform="translate(-16.275862068965516,-10)" width="65.10344827586206" height="86.27586206896552" style="opacity: 0;"></rect></g><g class="cell" transform="translate(465.7241379310345,10)"><rect class="shadow" transform="translate(1, 3)" width="32.55172413793103" height="32.55172413793103" rx="4" ry="4"></rect><rect class="node" width="32.55172413793103" height="32.55172413793103" rx="4" ry="4"></rect><line class="arrow" marker-end="url(#edgeArrowhead)" x1="32.55172413793103" x2="56.55172413793103" y1="16.275862068965516" y2="16.275862068965516"></line><line class="arrow" marker-end="url(#edgeArrowhead)" transform="translate(16.275862068965516, 0)" y1="0" y2="-15"></line><text dx="16.275862068965516" dy="17.275862068965516" style="opacity: 0.8;">B</text><text class="label" dx="16.275862068965516" dy="-29">a</text><rect transform="translate(-16.275862068965516,-10)" width="65.10344827586206" height="86.27586206896552" style="opacity: 0;"></rect></g><g class="cell" transform="translate(530.8275862068965,10)"><rect class="shadow" transform="translate(1, 3)" width="32.55172413793103" height="32.55172413793103" rx="4" ry="4"></rect><rect class="node" width="32.55172413793103" height="32.55172413793103" rx="4" ry="4"></rect><line class="arrow" marker-end="url(#edgeArrowhead)" x1="32.55172413793103" x2="56.55172413793103" y1="16.275862068965516" y2="16.275862068965516"></line><line class="arrow" marker-end="url(#edgeArrowhead)" transform="translate(16.275862068965516, 0)" y1="0" y2="-15"></line><text dx="16.275862068965516" dy="17.275862068965516" style="opacity: 0.8;">B</text><text class="label" dx="16.275862068965516" dy="-29">été</text><rect transform="translate(-16.275862068965516,-10)" width="65.10344827586206" height="86.27586206896552" style="opacity: 0;"></rect></g><g class="cell" transform="translate(595.9310344827586,10)"><rect class="shadow" transform="translate(1, 3)" width="32.55172413793103" height="32.55172413793103" rx="4" ry="4"></rect><rect class="node" width="32.55172413793103" height="32.55172413793103" rx="4" ry="4"></rect><line class="arrow" marker-end="url(#edgeArrowhead)" x1="32.55172413793103" x2="56.55172413793103" y1="16.275862068965516" y2="16.275862068965516"></line><line class="arrow" marker-end="url(#edgeArrowhead)" transform="translate(16.275862068965516, 0)" y1="0" y2="-15"></line><text dx="16.275862068965516" dy="17.275862068965516" style="opacity: 0.8;">B</text><text class="label" dx="16.275862068965516" dy="-29">signé</text><rect transform="translate(-16.275862068965516,-10)" width="65.10344827586206" height="86.27586206896552" style="opacity: 0;"></rect></g><g class="cell" transform="translate(661.0344827586207,10)"><rect class="shadow" transform="translate(1, 3)" width="32.55172413793103" height="32.55172413793103" rx="4" ry="4"></rect><rect class="node" width="32.55172413793103" height="32.55172413793103" rx="4" ry="4"></rect><line class="arrow" marker-end="url(#edgeArrowhead)" x1="32.55172413793103" x2="56.55172413793103" y1="16.275862068965516" y2="16.275862068965516"></line><line class="arrow" marker-end="url(#edgeArrowhead)" transform="translate(16.275862068965516, 0)" y1="0" y2="-15"></line><text dx="16.275862068965516" dy="17.275862068965516" style="opacity: 0.8;">B</text><text class="label" dx="16.275862068965516" dy="-29">en</text><rect transform="translate(-16.275862068965516,-10)" width="65.10344827586206" height="86.27586206896552" style="opacity: 0;"></rect></g><g class="cell" transform="translate(726.1379310344828,10)"><rect class="shadow" transform="translate(1, 3)" width="32.55172413793103" height="32.55172413793103" rx="4" ry="4"></rect><rect class="node" width="32.55172413793103" height="32.55172413793103" rx="4" ry="4"></rect><line class="arrow" marker-end="url(#edgeArrowhead)" x1="32.55172413793103" x2="56.55172413793103" y1="16.275862068965516" y2="16.275862068965516"></line><line class="arrow" marker-end="url(#edgeArrowhead)" transform="translate(16.275862068965516, 0)" y1="0" y2="-15"></line><text dx="16.275862068965516" dy="17.275862068965516" style="opacity: 0.8;">B</text><text class="label" dx="16.275862068965516" dy="-29">août</text><rect transform="translate(-16.275862068965516,-10)" width="65.10344827586206" height="86.27586206896552" style="opacity: 0;"></rect></g><g class="cell" transform="translate(791.2413793103449,10)"><rect class="shadow" transform="translate(1, 3)" width="32.55172413793103" height="32.55172413793103" rx="4" ry="4"></rect><rect class="node" width="32.55172413793103" height="32.55172413793103" rx="4" ry="4"></rect><line class="arrow" marker-end="url(#edgeArrowhead)" x1="32.55172413793103" x2="56.55172413793103" y1="16.275862068965516" y2="16.275862068965516"></line><line class="arrow" marker-end="url(#edgeArrowhead)" transform="translate(16.275862068965516, 0)" y1="0" y2="-15"></line><text dx="16.275862068965516" dy="17.275862068965516" style="opacity: 0.8;">B</text><text class="label" dx="16.275862068965516" dy="-29">1992</text><rect transform="translate(-16.275862068965516,-10)" width="65.10344827586206" height="86.27586206896552" style="opacity: 0;"></rect></g><g class="cell" transform="translate(856.344827586207,10)"><rect class="shadow" transform="translate(1, 3)" width="32.55172413793103" height="32.55172413793103" rx="4" ry="4"></rect><rect class="node" width="32.55172413793103" height="32.55172413793103" rx="4" ry="4"></rect><line class="arrow" marker-end="url(#edgeArrowhead)" x1="32.55172413793103" x2="56.55172413793103" y1="16.275862068965516" y2="16.275862068965516"></line><line class="arrow" marker-end="url(#edgeArrowhead)" transform="translate(16.275862068965516, 0)" y1="0" y2="-15"></line><text dx="16.275862068965516" dy="17.275862068965516" style="opacity: 0.8;">B</text><text class="label" dx="16.275862068965516" dy="-29">.</text><rect transform="translate(-16.275862068965516,-10)" width="65.10344827586206" height="86.27586206896552" style="opacity: 0;"></rect></g><g class="cell" transform="translate(921.4482758620688,10)"><rect class="shadow" transform="translate(1, 3)" width="32.55172413793103" height="32.55172413793103" rx="4" ry="4"></rect><rect class="node" width="32.55172413793103" height="32.55172413793103" rx="4" ry="4"></rect><line class="arrow" marker-end="url(#edgeArrowhead)" x1="32.55172413793103" x2="56.55172413793103" y1="16.275862068965516" y2="16.275862068965516"></line><line class="arrow" marker-end="url(#edgeArrowhead)" transform="translate(16.275862068965516, 0)" y1="0" y2="-15"></line><text dx="16.275862068965516" dy="17.275862068965516" style="opacity: 0.8;">B</text><text class="label" dx="16.275862068965516" dy="-29">&lt;end&gt;</text><rect transform="translate(-16.275862068965516,-10)" width="65.10344827586206" height="86.27586206896552" style="opacity: 0;"></rect></g></g><g class=".link-group"><path class="link" d="M26.275862068965573,42.55172413793103C26.275862068965573,82.55172413793103 27.48148148148148,90 27.48148148148148,130" style="opacity: 0.5;"></path><path class="link" d="M91.37931034482764,42.55172413793103C91.37931034482764,82.55172413793103 27.48148148148148,90 27.48148148148148,130" style="opacity: 0.02;"></path><path class="link" d="M156.4827586206897,42.55172413793103C156.4827586206897,82.55172413793103 27.48148148148148,90 27.48148148148148,130" style="opacity: 0.04;"></path><path class="link" d="M221.58620689655177,42.55172413793103C221.58620689655177,82.55172413793103 27.48148148148148,90 27.48148148148148,130" style="opacity: 0;"></path><path class="link" d="M286.68965517241384,42.55172413793103C286.68965517241384,82.55172413793103 27.48148148148148,90 27.48148148148148,130" style="opacity: 0;"></path><path class="link" d="M351.79310344827593,42.55172413793103C351.79310344827593,82.55172413793103 27.48148148148148,90 27.48148148148148,130" style="opacity: 0;"></path><path class="link" d="M416.89655172413796,42.55172413793103C416.89655172413796,82.55172413793103 27.48148148148148,90 27.48148148148148,130" style="opacity: 0;"></path><path class="link" d="M482,42.55172413793103C482,82.55172413793103 27.48148148148148,90 27.48148148148148,130" style="opacity: 0;"></path><path class="link" d="M547.103448275862,42.55172413793103C547.103448275862,82.55172413793103 27.48148148148148,90 27.48148148148148,130" style="opacity: 0.01;"></path><path class="link" d="M612.2068965517241,42.55172413793103C612.2068965517241,82.55172413793103 27.48148148148148,90 27.48148148148148,130" style="opacity: 0.01;"></path><path class="link" d="M677.3103448275862,42.55172413793103C677.3103448275862,82.55172413793103 27.48148148148148,90 27.48148148148148,130" style="opacity: 0;"></path><path class="link" d="M742.4137931034483,42.55172413793103C742.4137931034483,82.55172413793103 27.48148148148148,90 27.48148148148148,130" style="opacity: 0;"></path><path class="link" d="M807.5172413793103,42.55172413793103C807.5172413793103,82.55172413793103 27.48148148148148,90 27.48148148148148,130" style="opacity: 0;"></path><path class="link" d="M872.6206896551724,42.55172413793103C872.6206896551724,82.55172413793103 27.48148148148148,90 27.48148148148148,130" style="opacity: 0.05;"></path><path class="link" d="M937.7241379310343,42.55172413793103C937.7241379310343,82.55172413793103 27.48148148148148,90 27.48148148148148,130" style="opacity: 0.05;"></path><path class="link" d="M26.275862068965573,42.55172413793103C26.275862068965573,82.55172413793103 97.4074074074074,90 97.4074074074074,130" style="opacity: 0.14;"></path><path class="link" d="M91.37931034482764,42.55172413793103C91.37931034482764,82.55172413793103 97.4074074074074,90 97.4074074074074,130" style="opacity: 0.89;"></path><path class="link" d="M156.4827586206897,42.55172413793103C156.4827586206897,82.55172413793103 97.4074074074074,90 97.4074074074074,130" style="opacity: 0.07;"></path><path class="link" d="M221.58620689655177,42.55172413793103C221.58620689655177,82.55172413793103 97.4074074074074,90 97.4074074074074,130" style="opacity: 0;"></path><path class="link" d="M286.68965517241384,42.55172413793103C286.68965517241384,82.55172413793103 97.4074074074074,90 97.4074074074074,130" style="opacity: 0;"></path><path class="link" d="M351.79310344827593,42.55172413793103C351.79310344827593,82.55172413793103 97.4074074074074,90 97.4074074074074,130" style="opacity: 0;"></path><path class="link" d="M416.89655172413796,42.55172413793103C416.89655172413796,82.55172413793103 97.4074074074074,90 97.4074074074074,130" style="opacity: 0;"></path><path class="link" d="M482,42.55172413793103C482,82.55172413793103 97.4074074074074,90 97.4074074074074,130" style="opacity: 0;"></path><path class="link" d="M547.103448275862,42.55172413793103C547.103448275862,82.55172413793103 97.4074074074074,90 97.4074074074074,130" style="opacity: 0.01;"></path><path class="link" d="M612.2068965517241,42.55172413793103C612.2068965517241,82.55172413793103 97.4074074074074,90 97.4074074074074,130" style="opacity: 0.06;"></path><path class="link" d="M677.3103448275862,42.55172413793103C677.3103448275862,82.55172413793103 97.4074074074074,90 97.4074074074074,130" style="opacity: 0;"></path><path class="link" d="M742.4137931034483,42.55172413793103C742.4137931034483,82.55172413793103 97.4074074074074,90 97.4074074074074,130" style="opacity: 0;"></path><path class="link" d="M807.5172413793103,42.55172413793103C807.5172413793103,82.55172413793103 97.4074074074074,90 97.4074074074074,130" style="opacity: 0;"></path><path class="link" d="M872.6206896551724,42.55172413793103C872.6206896551724,82.55172413793103 97.4074074074074,90 97.4074074074074,130" style="opacity: 0.02;"></path><path class="link" d="M937.7241379310343,42.55172413793103C937.7241379310343,82.55172413793103 97.4074074074074,90 97.4074074074074,130" style="opacity: 0;"></path><path class="link" d="M26.275862068965573,42.55172413793103C26.275862068965573,82.55172413793103 167.33333333333331,90 167.33333333333331,130" style="opacity: 0.02;"></path><path class="link" d="M91.37931034482764,42.55172413793103C91.37931034482764,82.55172413793103 167.33333333333331,90 167.33333333333331,130" style="opacity: 0;"></path><path class="link" d="M156.4827586206897,42.55172413793103C156.4827586206897,82.55172413793103 167.33333333333331,90 167.33333333333331,130" style="opacity: 0.56;"></path><path class="link" d="M221.58620689655177,42.55172413793103C221.58620689655177,82.55172413793103 167.33333333333331,90 167.33333333333331,130" style="opacity: 0;"></path><path class="link" d="M286.68965517241384,42.55172413793103C286.68965517241384,82.55172413793103 167.33333333333331,90 167.33333333333331,130" style="opacity: 0;"></path><path class="link" d="M351.79310344827593,42.55172413793103C351.79310344827593,82.55172413793103 167.33333333333331,90 167.33333333333331,130" style="opacity: 0;"></path><path class="link" d="M416.89655172413796,42.55172413793103C416.89655172413796,82.55172413793103 167.33333333333331,90 167.33333333333331,130" style="opacity: 0;"></path><path class="link" d="M482,42.55172413793103C482,82.55172413793103 167.33333333333331,90 167.33333333333331,130" style="opacity: 0.01;"></path><path class="link" d="M547.103448275862,42.55172413793103C547.103448275862,82.55172413793103 167.33333333333331,90 167.33333333333331,130" style="opacity: 0;"></path><path class="link" d="M612.2068965517241,42.55172413793103C612.2068965517241,82.55172413793103 167.33333333333331,90 167.33333333333331,130" style="opacity: 0;"></path><path class="link" d="M677.3103448275862,42.55172413793103C677.3103448275862,82.55172413793103 167.33333333333331,90 167.33333333333331,130" style="opacity: 0;"></path><path class="link" d="M742.4137931034483,42.55172413793103C742.4137931034483,82.55172413793103 167.33333333333331,90 167.33333333333331,130" style="opacity: 0;"></path><path class="link" d="M807.5172413793103,42.55172413793103C807.5172413793103,82.55172413793103 167.33333333333331,90 167.33333333333331,130" style="opacity: 0;"></path><path class="link" d="M872.6206896551724,42.55172413793103C872.6206896551724,82.55172413793103 167.33333333333331,90 167.33333333333331,130" style="opacity: 0.02;"></path><path class="link" d="M937.7241379310343,42.55172413793103C937.7241379310343,82.55172413793103 167.33333333333331,90 167.33333333333331,130" style="opacity: 0;"></path><path class="link" d="M26.275862068965573,42.55172413793103C26.275862068965573,82.55172413793103 237.25925925925924,90 237.25925925925924,130" style="opacity: 0;"></path><path class="link" d="M91.37931034482764,42.55172413793103C91.37931034482764,82.55172413793103 237.25925925925924,90 237.25925925925924,130" style="opacity: 0;"></path><path class="link" d="M156.4827586206897,42.55172413793103C156.4827586206897,82.55172413793103 237.25925925925924,90 237.25925925925924,130" style="opacity: 0.01;"></path><path class="link" d="M221.58620689655177,42.55172413793103C221.58620689655177,82.55172413793103 237.25925925925924,90 237.25925925925924,130" style="opacity: 0.61;"></path><path class="link" d="M286.68965517241384,42.55172413793103C286.68965517241384,82.55172413793103 237.25925925925924,90 237.25925925925924,130" style="opacity: 0.02;"></path><path class="link" d="M351.79310344827593,42.55172413793103C351.79310344827593,82.55172413793103 237.25925925925924,90 237.25925925925924,130" style="opacity: 0;"></path><path class="link" d="M416.89655172413796,42.55172413793103C416.89655172413796,82.55172413793103 237.25925925925924,90 237.25925925925924,130" style="opacity: 0;"></path><path class="link" d="M482,42.55172413793103C482,82.55172413793103 237.25925925925924,90 237.25925925925924,130" style="opacity: 0;"></path><path class="link" d="M547.103448275862,42.55172413793103C547.103448275862,82.55172413793103 237.25925925925924,90 237.25925925925924,130" style="opacity: 0;"></path><path class="link" d="M612.2068965517241,42.55172413793103C612.2068965517241,82.55172413793103 237.25925925925924,90 237.25925925925924,130" style="opacity: 0;"></path><path class="link" d="M677.3103448275862,42.55172413793103C677.3103448275862,82.55172413793103 237.25925925925924,90 237.25925925925924,130" style="opacity: 0;"></path><path class="link" d="M742.4137931034483,42.55172413793103C742.4137931034483,82.55172413793103 237.25925925925924,90 237.25925925925924,130" style="opacity: 0;"></path><path class="link" d="M807.5172413793103,42.55172413793103C807.5172413793103,82.55172413793103 237.25925925925924,90 237.25925925925924,130" style="opacity: 0;"></path><path class="link" d="M872.6206896551724,42.55172413793103C872.6206896551724,82.55172413793103 237.25925925925924,90 237.25925925925924,130" style="opacity: 0;"></path><path class="link" d="M937.7241379310343,42.55172413793103C937.7241379310343,82.55172413793103 237.25925925925924,90 237.25925925925924,130" style="opacity: 0;"></path><path class="link" d="M26.275862068965573,42.55172413793103C26.275862068965573,82.55172413793103 307.18518518518516,90 307.18518518518516,130" style="opacity: 0;"></path><path class="link" d="M91.37931034482764,42.55172413793103C91.37931034482764,82.55172413793103 307.18518518518516,90 307.18518518518516,130" style="opacity: 0;"></path><path class="link" d="M156.4827586206897,42.55172413793103C156.4827586206897,82.55172413793103 307.18518518518516,90 307.18518518518516,130" style="opacity: 0.02;"></path><path class="link" d="M221.58620689655177,42.55172413793103C221.58620689655177,82.55172413793103 307.18518518518516,90 307.18518518518516,130" style="opacity: 0.03;"></path><path class="link" d="M286.68965517241384,42.55172413793103C286.68965517241384,82.55172413793103 307.18518518518516,90 307.18518518518516,130" style="opacity: 0.01;"></path><path class="link" d="M351.79310344827593,42.55172413793103C351.79310344827593,82.55172413793103 307.18518518518516,90 307.18518518518516,130" style="opacity: 0.21;"></path><path class="link" d="M416.89655172413796,42.55172413793103C416.89655172413796,82.55172413793103 307.18518518518516,90 307.18518518518516,130" style="opacity: 0.97;"></path><path class="link" d="M482,42.55172413793103C482,82.55172413793103 307.18518518518516,90 307.18518518518516,130" style="opacity: 0.05;"></path><path class="link" d="M547.103448275862,42.55172413793103C547.103448275862,82.55172413793103 307.18518518518516,90 307.18518518518516,130" style="opacity: 0;"></path><path class="link" d="M612.2068965517241,42.55172413793103C612.2068965517241,82.55172413793103 307.18518518518516,90 307.18518518518516,130" style="opacity: 0;"></path><path class="link" d="M677.3103448275862,42.55172413793103C677.3103448275862,82.55172413793103 307.18518518518516,90 307.18518518518516,130" style="opacity: 0;"></path><path class="link" d="M742.4137931034483,42.55172413793103C742.4137931034483,82.55172413793103 307.18518518518516,90 307.18518518518516,130" style="opacity: 0;"></path><path class="link" d="M807.5172413793103,42.55172413793103C807.5172413793103,82.55172413793103 307.18518518518516,90 307.18518518518516,130" style="opacity: 0;"></path><path class="link" d="M872.6206896551724,42.55172413793103C872.6206896551724,82.55172413793103 307.18518518518516,90 307.18518518518516,130" style="opacity: 0.01;"></path><path class="link" d="M937.7241379310343,42.55172413793103C937.7241379310343,82.55172413793103 307.18518518518516,90 307.18518518518516,130" style="opacity: 0;"></path><path class="link" d="M26.275862068965573,42.55172413793103C26.275862068965573,82.55172413793103 377.1111111111111,90 377.1111111111111,130" style="opacity: 0;"></path><path class="link" d="M91.37931034482764,42.55172413793103C91.37931034482764,82.55172413793103 377.1111111111111,90 377.1111111111111,130" style="opacity: 0;"></path><path class="link" d="M156.4827586206897,42.55172413793103C156.4827586206897,82.55172413793103 377.1111111111111,90 377.1111111111111,130" style="opacity: 0.02;"></path><path class="link" d="M221.58620689655177,42.55172413793103C221.58620689655177,82.55172413793103 377.1111111111111,90 377.1111111111111,130" style="opacity: 0.07;"></path><path class="link" d="M286.68965517241384,42.55172413793103C286.68965517241384,82.55172413793103 377.1111111111111,90 377.1111111111111,130" style="opacity: 0.25;"></path><path class="link" d="M351.79310344827593,42.55172413793103C351.79310344827593,82.55172413793103 377.1111111111111,90 377.1111111111111,130" style="opacity: 0.76;"></path><path class="link" d="M416.89655172413796,42.55172413793103C416.89655172413796,82.55172413793103 377.1111111111111,90 377.1111111111111,130" style="opacity: 0.02;"></path><path class="link" d="M482,42.55172413793103C482,82.55172413793103 377.1111111111111,90 377.1111111111111,130" style="opacity: 0.04;"></path><path class="link" d="M547.103448275862,42.55172413793103C547.103448275862,82.55172413793103 377.1111111111111,90 377.1111111111111,130" style="opacity: 0;"></path><path class="link" d="M612.2068965517241,42.55172413793103C612.2068965517241,82.55172413793103 377.1111111111111,90 377.1111111111111,130" style="opacity: 0;"></path><path class="link" d="M677.3103448275862,42.55172413793103C677.3103448275862,82.55172413793103 377.1111111111111,90 377.1111111111111,130" style="opacity: 0;"></path><path class="link" d="M742.4137931034483,42.55172413793103C742.4137931034483,82.55172413793103 377.1111111111111,90 377.1111111111111,130" style="opacity: 0;"></path><path class="link" d="M807.5172413793103,42.55172413793103C807.5172413793103,82.55172413793103 377.1111111111111,90 377.1111111111111,130" style="opacity: 0;"></path><path class="link" d="M872.6206896551724,42.55172413793103C872.6206896551724,82.55172413793103 377.1111111111111,90 377.1111111111111,130" style="opacity: 0.02;"></path><path class="link" d="M937.7241379310343,42.55172413793103C937.7241379310343,82.55172413793103 377.1111111111111,90 377.1111111111111,130" style="opacity: 0;"></path><path class="link" d="M26.275862068965573,42.55172413793103C26.275862068965573,82.55172413793103 447.037037037037,90 447.037037037037,130" style="opacity: 0.02;"></path><path class="link" d="M91.37931034482764,42.55172413793103C91.37931034482764,82.55172413793103 447.037037037037,90 447.037037037037,130" style="opacity: 0.04;"></path><path class="link" d="M156.4827586206897,42.55172413793103C156.4827586206897,82.55172413793103 447.037037037037,90 447.037037037037,130" style="opacity: 0.03;"></path><path class="link" d="M221.58620689655177,42.55172413793103C221.58620689655177,82.55172413793103 447.037037037037,90 447.037037037037,130" style="opacity: 0.27;"></path><path class="link" d="M286.68965517241384,42.55172413793103C286.68965517241384,82.55172413793103 447.037037037037,90 447.037037037037,130" style="opacity: 0.71;"></path><path class="link" d="M351.79310344827593,42.55172413793103C351.79310344827593,82.55172413793103 447.037037037037,90 447.037037037037,130" style="opacity: 0.02;"></path><path class="link" d="M416.89655172413796,42.55172413793103C416.89655172413796,82.55172413793103 447.037037037037,90 447.037037037037,130" style="opacity: 0;"></path><path class="link" d="M482,42.55172413793103C482,82.55172413793103 447.037037037037,90 447.037037037037,130" style="opacity: 0.02;"></path><path class="link" d="M547.103448275862,42.55172413793103C547.103448275862,82.55172413793103 447.037037037037,90 447.037037037037,130" style="opacity: 0;"></path><path class="link" d="M612.2068965517241,42.55172413793103C612.2068965517241,82.55172413793103 447.037037037037,90 447.037037037037,130" style="opacity: 0;"></path><path class="link" d="M677.3103448275862,42.55172413793103C677.3103448275862,82.55172413793103 447.037037037037,90 447.037037037037,130" style="opacity: 0.02;"></path><path class="link" d="M742.4137931034483,42.55172413793103C742.4137931034483,82.55172413793103 447.037037037037,90 447.037037037037,130" style="opacity: 0;"></path><path class="link" d="M807.5172413793103,42.55172413793103C807.5172413793103,82.55172413793103 447.037037037037,90 447.037037037037,130" style="opacity: 0;"></path><path class="link" d="M872.6206896551724,42.55172413793103C872.6206896551724,82.55172413793103 447.037037037037,90 447.037037037037,130" style="opacity: 0.05;"></path><path class="link" d="M937.7241379310343,42.55172413793103C937.7241379310343,82.55172413793103 447.037037037037,90 447.037037037037,130" style="opacity: 0.01;"></path><path class="link" d="M26.275862068965573,42.55172413793103C26.275862068965573,82.55172413793103 516.9629629629629,90 516.9629629629629,130" style="opacity: 0.02;"></path><path class="link" d="M91.37931034482764,42.55172413793103C91.37931034482764,82.55172413793103 516.9629629629629,90 516.9629629629629,130" style="opacity: 0;"></path><path class="link" d="M156.4827586206897,42.55172413793103C156.4827586206897,82.55172413793103 516.9629629629629,90 516.9629629629629,130" style="opacity: 0.07;"></path><path class="link" d="M221.58620689655177,42.55172413793103C221.58620689655177,82.55172413793103 516.9629629629629,90 516.9629629629629,130" style="opacity: 0;"></path><path class="link" d="M286.68965517241384,42.55172413793103C286.68965517241384,82.55172413793103 516.9629629629629,90 516.9629629629629,130" style="opacity: 0;"></path><path class="link" d="M351.79310344827593,42.55172413793103C351.79310344827593,82.55172413793103 516.9629629629629,90 516.9629629629629,130" style="opacity: 0;"></path><path class="link" d="M416.89655172413796,42.55172413793103C416.89655172413796,82.55172413793103 516.9629629629629,90 516.9629629629629,130" style="opacity: 0;"></path><path class="link" d="M482,42.55172413793103C482,82.55172413793103 516.9629629629629,90 516.9629629629629,130" style="opacity: 0.6;"></path><path class="link" d="M547.103448275862,42.55172413793103C547.103448275862,82.55172413793103 516.9629629629629,90 516.9629629629629,130" style="opacity: 0.4;"></path><path class="link" d="M612.2068965517241,42.55172413793103C612.2068965517241,82.55172413793103 516.9629629629629,90 516.9629629629629,130" style="opacity: 0.01;"></path><path class="link" d="M677.3103448275862,42.55172413793103C677.3103448275862,82.55172413793103 516.9629629629629,90 516.9629629629629,130" style="opacity: 0.04;"></path><path class="link" d="M742.4137931034483,42.55172413793103C742.4137931034483,82.55172413793103 516.9629629629629,90 516.9629629629629,130" style="opacity: 0;"></path><path class="link" d="M807.5172413793103,42.55172413793103C807.5172413793103,82.55172413793103 516.9629629629629,90 516.9629629629629,130" style="opacity: 0;"></path><path class="link" d="M872.6206896551724,42.55172413793103C872.6206896551724,82.55172413793103 516.9629629629629,90 516.9629629629629,130" style="opacity: 0.13;"></path><path class="link" d="M937.7241379310343,42.55172413793103C937.7241379310343,82.55172413793103 516.9629629629629,90 516.9629629629629,130" style="opacity: 0.01;"></path><path class="link" d="M26.275862068965573,42.55172413793103C26.275862068965573,82.55172413793103 586.8888888888889,90 586.8888888888889,130" style="opacity: 0.13;"></path><path class="link" d="M91.37931034482764,42.55172413793103C91.37931034482764,82.55172413793103 586.8888888888889,90 586.8888888888889,130" style="opacity: 0.02;"></path><path class="link" d="M156.4827586206897,42.55172413793103C156.4827586206897,82.55172413793103 586.8888888888889,90 586.8888888888889,130" style="opacity: 0.02;"></path><path class="link" d="M221.58620689655177,42.55172413793103C221.58620689655177,82.55172413793103 586.8888888888889,90 586.8888888888889,130" style="opacity: 0;"></path><path class="link" d="M286.68965517241384,42.55172413793103C286.68965517241384,82.55172413793103 586.8888888888889,90 586.8888888888889,130" style="opacity: 0.01;"></path><path class="link" d="M351.79310344827593,42.55172413793103C351.79310344827593,82.55172413793103 586.8888888888889,90 586.8888888888889,130" style="opacity: 0;"></path><path class="link" d="M416.89655172413796,42.55172413793103C416.89655172413796,82.55172413793103 586.8888888888889,90 586.8888888888889,130" style="opacity: 0;"></path><path class="link" d="M482,42.55172413793103C482,82.55172413793103 586.8888888888889,90 586.8888888888889,130" style="opacity: 0.23;"></path><path class="link" d="M547.103448275862,42.55172413793103C547.103448275862,82.55172413793103 586.8888888888889,90 586.8888888888889,130" style="opacity: 0.52;"></path><path class="link" d="M612.2068965517241,42.55172413793103C612.2068965517241,82.55172413793103 586.8888888888889,90 586.8888888888889,130" style="opacity: 0.91;"></path><path class="link" d="M677.3103448275862,42.55172413793103C677.3103448275862,82.55172413793103 586.8888888888889,90 586.8888888888889,130" style="opacity: 0.07;"></path><path class="link" d="M742.4137931034483,42.55172413793103C742.4137931034483,82.55172413793103 586.8888888888889,90 586.8888888888889,130" style="opacity: 0;"></path><path class="link" d="M807.5172413793103,42.55172413793103C807.5172413793103,82.55172413793103 586.8888888888889,90 586.8888888888889,130" style="opacity: 0;"></path><path class="link" d="M872.6206896551724,42.55172413793103C872.6206896551724,82.55172413793103 586.8888888888889,90 586.8888888888889,130" style="opacity: 0.1;"></path><path class="link" d="M937.7241379310343,42.55172413793103C937.7241379310343,82.55172413793103 586.8888888888889,90 586.8888888888889,130" style="opacity: 0;"></path><path class="link" d="M26.275862068965573,42.55172413793103C26.275862068965573,82.55172413793103 656.8148148148148,90 656.8148148148148,130" style="opacity: 0.04;"></path><path class="link" d="M91.37931034482764,42.55172413793103C91.37931034482764,82.55172413793103 656.8148148148148,90 656.8148148148148,130" style="opacity: 0;"></path><path class="link" d="M156.4827586206897,42.55172413793103C156.4827586206897,82.55172413793103 656.8148148148148,90 656.8148148148148,130" style="opacity: 0.01;"></path><path class="link" d="M221.58620689655177,42.55172413793103C221.58620689655177,82.55172413793103 656.8148148148148,90 656.8148148148148,130" style="opacity: 0;"></path><path class="link" d="M286.68965517241384,42.55172413793103C286.68965517241384,82.55172413793103 656.8148148148148,90 656.8148148148148,130" style="opacity: 0;"></path><path class="link" d="M351.79310344827593,42.55172413793103C351.79310344827593,82.55172413793103 656.8148148148148,90 656.8148148148148,130" style="opacity: 0;"></path><path class="link" d="M416.89655172413796,42.55172413793103C416.89655172413796,82.55172413793103 656.8148148148148,90 656.8148148148148,130" style="opacity: 0;"></path><path class="link" d="M482,42.55172413793103C482,82.55172413793103 656.8148148148148,90 656.8148148148148,130" style="opacity: 0.01;"></path><path class="link" d="M547.103448275862,42.55172413793103C547.103448275862,82.55172413793103 656.8148148148148,90 656.8148148148148,130" style="opacity: 0.03;"></path><path class="link" d="M612.2068965517241,42.55172413793103C612.2068965517241,82.55172413793103 656.8148148148148,90 656.8148148148148,130" style="opacity: 0;"></path><path class="link" d="M677.3103448275862,42.55172413793103C677.3103448275862,82.55172413793103 656.8148148148148,90 656.8148148148148,130" style="opacity: 0.67;"></path><path class="link" d="M742.4137931034483,42.55172413793103C742.4137931034483,82.55172413793103 656.8148148148148,90 656.8148148148148,130" style="opacity: 0;"></path><path class="link" d="M807.5172413793103,42.55172413793103C807.5172413793103,82.55172413793103 656.8148148148148,90 656.8148148148148,130" style="opacity: 0;"></path><path class="link" d="M872.6206896551724,42.55172413793103C872.6206896551724,82.55172413793103 656.8148148148148,90 656.8148148148148,130" style="opacity: 0.16;"></path><path class="link" d="M937.7241379310343,42.55172413793103C937.7241379310343,82.55172413793103 656.8148148148148,90 656.8148148148148,130" style="opacity: 0.02;"></path><path class="link" d="M26.275862068965573,42.55172413793103C26.275862068965573,82.55172413793103 726.7407407407408,90 726.7407407407408,130" style="opacity: 0.02;"></path><path class="link" d="M91.37931034482764,42.55172413793103C91.37931034482764,82.55172413793103 726.7407407407408,90 726.7407407407408,130" style="opacity: 0;"></path><path class="link" d="M156.4827586206897,42.55172413793103C156.4827586206897,82.55172413793103 726.7407407407408,90 726.7407407407408,130" style="opacity: 0.04;"></path><path class="link" d="M221.58620689655177,42.55172413793103C221.58620689655177,82.55172413793103 726.7407407407408,90 726.7407407407408,130" style="opacity: 0;"></path><path class="link" d="M286.68965517241384,42.55172413793103C286.68965517241384,82.55172413793103 726.7407407407408,90 726.7407407407408,130" style="opacity: 0;"></path><path class="link" d="M351.79310344827593,42.55172413793103C351.79310344827593,82.55172413793103 726.7407407407408,90 726.7407407407408,130" style="opacity: 0;"></path><path class="link" d="M416.89655172413796,42.55172413793103C416.89655172413796,82.55172413793103 726.7407407407408,90 726.7407407407408,130" style="opacity: 0;"></path><path class="link" d="M482,42.55172413793103C482,82.55172413793103 726.7407407407408,90 726.7407407407408,130" style="opacity: 0;"></path><path class="link" d="M547.103448275862,42.55172413793103C547.103448275862,82.55172413793103 726.7407407407408,90 726.7407407407408,130" style="opacity: 0;"></path><path class="link" d="M612.2068965517241,42.55172413793103C612.2068965517241,82.55172413793103 726.7407407407408,90 726.7407407407408,130" style="opacity: 0;"></path><path class="link" d="M677.3103448275862,42.55172413793103C677.3103448275862,82.55172413793103 726.7407407407408,90 726.7407407407408,130" style="opacity: 0.14;"></path><path class="link" d="M742.4137931034483,42.55172413793103C742.4137931034483,82.55172413793103 726.7407407407408,90 726.7407407407408,130" style="opacity: 0.96;"></path><path class="link" d="M807.5172413793103,42.55172413793103C807.5172413793103,82.55172413793103 726.7407407407408,90 726.7407407407408,130" style="opacity: 0;"></path><path class="link" d="M872.6206896551724,42.55172413793103C872.6206896551724,82.55172413793103 726.7407407407408,90 726.7407407407408,130" style="opacity: 0.02;"></path><path class="link" d="M937.7241379310343,42.55172413793103C937.7241379310343,82.55172413793103 726.7407407407408,90 726.7407407407408,130" style="opacity: 0.07;"></path><path class="link" d="M26.275862068965573,42.55172413793103C26.275862068965573,82.55172413793103 796.6666666666667,90 796.6666666666667,130" style="opacity: 0.02;"></path><path class="link" d="M91.37931034482764,42.55172413793103C91.37931034482764,82.55172413793103 796.6666666666667,90 796.6666666666667,130" style="opacity: 0;"></path><path class="link" d="M156.4827586206897,42.55172413793103C156.4827586206897,82.55172413793103 796.6666666666667,90 796.6666666666667,130" style="opacity: 0;"></path><path class="link" d="M221.58620689655177,42.55172413793103C221.58620689655177,82.55172413793103 796.6666666666667,90 796.6666666666667,130" style="opacity: 0;"></path><path class="link" d="M286.68965517241384,42.55172413793103C286.68965517241384,82.55172413793103 796.6666666666667,90 796.6666666666667,130" style="opacity: 0;"></path><path class="link" d="M351.79310344827593,42.55172413793103C351.79310344827593,82.55172413793103 796.6666666666667,90 796.6666666666667,130" style="opacity: 0;"></path><path class="link" d="M416.89655172413796,42.55172413793103C416.89655172413796,82.55172413793103 796.6666666666667,90 796.6666666666667,130" style="opacity: 0;"></path><path class="link" d="M482,42.55172413793103C482,82.55172413793103 796.6666666666667,90 796.6666666666667,130" style="opacity: 0;"></path><path class="link" d="M547.103448275862,42.55172413793103C547.103448275862,82.55172413793103 796.6666666666667,90 796.6666666666667,130" style="opacity: 0;"></path><path class="link" d="M612.2068965517241,42.55172413793103C612.2068965517241,82.55172413793103 796.6666666666667,90 796.6666666666667,130" style="opacity: 0;"></path><path class="link" d="M677.3103448275862,42.55172413793103C677.3103448275862,82.55172413793103 796.6666666666667,90 796.6666666666667,130" style="opacity: 0.02;"></path><path class="link" d="M742.4137931034483,42.55172413793103C742.4137931034483,82.55172413793103 796.6666666666667,90 796.6666666666667,130" style="opacity: 0.02;"></path><path class="link" d="M807.5172413793103,42.55172413793103C807.5172413793103,82.55172413793103 796.6666666666667,90 796.6666666666667,130" style="opacity: 1;"></path><path class="link" d="M872.6206896551724,42.55172413793103C872.6206896551724,82.55172413793103 796.6666666666667,90 796.6666666666667,130" style="opacity: 0.02;"></path><path class="link" d="M937.7241379310343,42.55172413793103C937.7241379310343,82.55172413793103 796.6666666666667,90 796.6666666666667,130" style="opacity: 0.03;"></path><path class="link" d="M26.275862068965573,42.55172413793103C26.275862068965573,82.55172413793103 866.5925925925926,90 866.5925925925926,130" style="opacity: 0.02;"></path><path class="link" d="M91.37931034482764,42.55172413793103C91.37931034482764,82.55172413793103 866.5925925925926,90 866.5925925925926,130" style="opacity: 0;"></path><path class="link" d="M156.4827586206897,42.55172413793103C156.4827586206897,82.55172413793103 866.5925925925926,90 866.5925925925926,130" style="opacity: 0;"></path><path class="link" d="M221.58620689655177,42.55172413793103C221.58620689655177,82.55172413793103 866.5925925925926,90 866.5925925925926,130" style="opacity: 0;"></path><path class="link" d="M286.68965517241384,42.55172413793103C286.68965517241384,82.55172413793103 866.5925925925926,90 866.5925925925926,130" style="opacity: 0;"></path><path class="link" d="M351.79310344827593,42.55172413793103C351.79310344827593,82.55172413793103 866.5925925925926,90 866.5925925925926,130" style="opacity: 0;"></path><path class="link" d="M416.89655172413796,42.55172413793103C416.89655172413796,82.55172413793103 866.5925925925926,90 866.5925925925926,130" style="opacity: 0;"></path><path class="link" d="M482,42.55172413793103C482,82.55172413793103 866.5925925925926,90 866.5925925925926,130" style="opacity: 0;"></path><path class="link" d="M547.103448275862,42.55172413793103C547.103448275862,82.55172413793103 866.5925925925926,90 866.5925925925926,130" style="opacity: 0.01;"></path><path class="link" d="M612.2068965517241,42.55172413793103C612.2068965517241,82.55172413793103 866.5925925925926,90 866.5925925925926,130" style="opacity: 0;"></path><path class="link" d="M677.3103448275862,42.55172413793103C677.3103448275862,82.55172413793103 866.5925925925926,90 866.5925925925926,130" style="opacity: 0.01;"></path><path class="link" d="M742.4137931034483,42.55172413793103C742.4137931034483,82.55172413793103 866.5925925925926,90 866.5925925925926,130" style="opacity: 0;"></path><path class="link" d="M807.5172413793103,42.55172413793103C807.5172413793103,82.55172413793103 866.5925925925926,90 866.5925925925926,130" style="opacity: 0;"></path><path class="link" d="M872.6206896551724,42.55172413793103C872.6206896551724,82.55172413793103 866.5925925925926,90 866.5925925925926,130" style="opacity: 0.32;"></path><path class="link" d="M937.7241379310343,42.55172413793103C937.7241379310343,82.55172413793103 866.5925925925926,90 866.5925925925926,130" style="opacity: 0.11;"></path><path class="link" d="M26.275862068965573,42.55172413793103C26.275862068965573,82.55172413793103 936.5185185185185,90 936.5185185185185,130" style="opacity: 0.04;"></path><path class="link" d="M91.37931034482764,42.55172413793103C91.37931034482764,82.55172413793103 936.5185185185185,90 936.5185185185185,130" style="opacity: 0;"></path><path class="link" d="M156.4827586206897,42.55172413793103C156.4827586206897,82.55172413793103 936.5185185185185,90 936.5185185185185,130" style="opacity: 0.08;"></path><path class="link" d="M221.58620689655177,42.55172413793103C221.58620689655177,82.55172413793103 936.5185185185185,90 936.5185185185185,130" style="opacity: 0;"></path><path class="link" d="M286.68965517241384,42.55172413793103C286.68965517241384,82.55172413793103 936.5185185185185,90 936.5185185185185,130" style="opacity: 0;"></path><path class="link" d="M351.79310344827593,42.55172413793103C351.79310344827593,82.55172413793103 936.5185185185185,90 936.5185185185185,130" style="opacity: 0;"></path><path class="link" d="M416.89655172413796,42.55172413793103C416.89655172413796,82.55172413793103 936.5185185185185,90 936.5185185185185,130" style="opacity: 0;"></path><path class="link" d="M482,42.55172413793103C482,82.55172413793103 936.5185185185185,90 936.5185185185185,130" style="opacity: 0;"></path><path class="link" d="M547.103448275862,42.55172413793103C547.103448275862,82.55172413793103 936.5185185185185,90 936.5185185185185,130" style="opacity: 0;"></path><path class="link" d="M612.2068965517241,42.55172413793103C612.2068965517241,82.55172413793103 936.5185185185185,90 936.5185185185185,130" style="opacity: 0;"></path><path class="link" d="M677.3103448275862,42.55172413793103C677.3103448275862,82.55172413793103 936.5185185185185,90 936.5185185185185,130" style="opacity: 0.01;"></path><path class="link" d="M742.4137931034483,42.55172413793103C742.4137931034483,82.55172413793103 936.5185185185185,90 936.5185185185185,130" style="opacity: 0;"></path><path class="link" d="M807.5172413793103,42.55172413793103C807.5172413793103,82.55172413793103 936.5185185185185,90 936.5185185185185,130" style="opacity: 0;"></path><path class="link" d="M872.6206896551724,42.55172413793103C872.6206896551724,82.55172413793103 936.5185185185185,90 936.5185185185185,130" style="opacity: 0.04;"></path><path class="link" d="M937.7241379310343,42.55172413793103C937.7241379310343,82.55172413793103 936.5185185185185,90 936.5185185185185,130" style="opacity: 0.67;"></path></g></g></svg>