<svg id="fig2b_svg" height="320" width="500" style="position: relative; top: -100px;">
        Sorry, your browser does not support inline SVG.
      <rect data-id="feature_2_3" class="feature feature_2_3" x="90" y="130" width="30" height="30" style="fill:rgb(255,255,255);stroke-width:1;stroke:rgb(140,140,140)"></rect><rect data-id="feature_2_4" class="feature feature_2_4" x="120" y="130" width="30" height="30" style="fill:rgb(255,255,255);stroke-width:1;stroke:rgb(140,140,140)"></rect><rect data-id="feature_2_5" class="feature feature_2_5" x="150" y="130" width="30" height="30" style="fill:rgb(255,255,255);stroke-width:1;stroke:rgb(140,140,140)"></rect><rect data-id="feature_2_6" class="feature feature_2_6" x="180" y="130" width="30" height="30" style="fill:rgb(255,255,255);stroke-width:1;stroke:rgb(140,140,140)"></rect><rect data-id="feature_2_7" class="feature feature_2_7" x="210" y="130" width="30" height="30" style="fill:rgb(255,255,255);stroke-width:1;stroke:rgb(140,140,140)"></rect><path data-id="flow_3_5" class="flow flow_3_5" data-offset1="3" data-width1="2" data-rowheight="1" stroke="#8a9fec" d="M90 160 C 90 210, 150 210, 150 260 L180 260 C 180 210, 150 210, 150 160 Z" opacity="0.5" fill-opacity="null" stroke-opacity="null" stroke-width="1" "="" fill="rgb(224,234,250)"></path><path data-id="flow_3_6" class="flow flow_3_6" data-offset1="6" data-width1="2" data-rowheight="1" stroke="#8a9fec" d="M180 160 C 180 210, 180 210, 180 260 L210 260 C 210 210, 240 210, 240 160 Z" opacity="0.5" fill-opacity="null" stroke-opacity="null" stroke-width="1" "="" fill="rgb(224,234,250)"></path><rect data-id="feature_3_5" class="feature feature_3_5" x="150" y="260" width="30" height="30" style="fill:rgb(255,255,255);stroke-width:1;stroke:rgb(140,140,140)"></rect><rect data-id="feature_3_6" class="feature feature_3_6" x="180" y="260" width="30" height="30" style="fill:rgb(255,255,255);stroke-width:1;stroke:rgb(140,140,140)"></rect><path stroke="rgb(16, 150, 24)" d="M90 110 L 90 120 L 90 115 L 150 115 L 150 110 L 150 120" opacity="1.0" fill-opacity="0.0" stroke-opacity="null" stroke-width="1" fill="rgb(16, 150, 24)"></path><path stroke="rgb(16, 150, 24)" d="M180 110 L 180 120 L 180 115 L 240 115 L 240 110 L 240 120" opacity="1.0" fill-opacity="0.0" stroke-opacity="null" stroke-width="1" fill="rgb(16, 150, 24)"></path></svg>