<svg id="fig4_svg" height="450" width="800" style="position: relative; top: 0px;">
        Sorry, your browser does not support inline SVG.
      <rect data-id="feature_1_6" class="feature feature_1_6" x="180" y="0" width="30" height="30" style="fill: rgb(224, 234, 250); stroke-width: 1; stroke: rgb(140, 140, 140);"></rect><rect data-id="feature_1_7" class="feature feature_1_7" x="210" y="0" width="30" height="30" style="fill: rgb(224, 234, 250); stroke-width: 1; stroke: rgb(140, 140, 140);"></rect><rect data-id="feature_1_8" class="feature feature_1_8" x="240" y="0" width="30" height="30" style="fill: rgb(224, 234, 250); stroke-width: 1; stroke: rgb(140, 140, 140);"></rect><rect data-id="feature_1_9" class="feature feature_1_9" x="270" y="0" width="30" height="30" style="fill: rgb(224, 234, 250); stroke-width: 1; stroke: rgb(140, 140, 140);"></rect><rect data-id="feature_1_10" class="feature feature_1_10" x="300" y="0" width="30" height="30" style="fill: rgb(224, 234, 250); stroke-width: 1; stroke: rgb(140, 140, 140);"></rect><rect data-id="feature_1_11" class="feature feature_1_11" x="330" y="0" width="30" height="30" style="fill: rgb(224, 234, 250); stroke-width: 1; stroke: rgb(140, 140, 140);"></rect><rect data-id="feature_1_12" class="feature feature_1_12" x="360" y="0" width="30" height="30" style="fill:rgb(255,255,255);stroke-width:1;stroke:rgb(140,140,140)"></rect><rect data-id="feature_1_13" class="feature feature_1_13" x="390" y="0" width="30" height="30" style="fill:rgb(255,255,255);stroke-width:1;stroke:rgb(140,140,140)"></rect><path data-id="flow_2_4" class="flow flow_2_4" data-offset1="4" data-width1="5" data-rowheight="1" stroke="#8a9fec" d="M120 30 C 120 80, 120 80, 120 130 L150 130 C 150 80, 270 80, 270 30 Z" opacity="0.5" fill-opacity="null" stroke-opacity="null" stroke-width="1" "="" fill="rgb(224,234,250)" style="display: none;"></path><path data-id="flow_2_5" class="flow flow_2_5" data-offset1="6" data-width1="5" data-rowheight="1" stroke="#8a9fec" d="M180 30 C 180 80, 150 80, 150 130 L180 130 C 180 80, 330 80, 330 30 Z" opacity="0.5" fill-opacity="null" stroke-opacity="null" stroke-width="1" "="" fill="rgb(224,234,250)" style="display: block;"></path><path data-id="flow_2_6" class="flow flow_2_6" data-offset1="8" data-width1="5" data-rowheight="1" stroke="#8a9fec" d="M240 30 C 240 80, 180 80, 180 130 L210 130 C 210 80, 390 80, 390 30 Z" opacity="0.5" fill-opacity="null" stroke-opacity="null" stroke-width="1" "="" fill="rgb(224,234,250)" style="display: none;"></path><path data-id="flow_2_7" class="flow flow_2_7" data-offset1="10" data-width1="5" data-rowheight="1" stroke="#8a9fec" d="M300 30 C 300 80, 210 80, 210 130 L240 130 C 240 80, 450 80, 450 30 Z" opacity="0.5" fill-opacity="null" stroke-opacity="null" stroke-width="1" "="" fill="rgb(224,234,250)" style="display: none;"></path><path data-id="flow_2_9" class="flow flow_2_9" data-offset1="6" data-width1="3" data-rowheight="1" stroke="#8a9fec" d="M180 30 C 180 80, 270 80, 270 130 L300 130 C 300 80, 270 80, 270 30 Z" opacity="0.5" fill-opacity="null" stroke-opacity="null" stroke-width="1" "="" fill="rgb(224,234,250)" style="display: none;"></path><path data-id="flow_2_10" class="flow flow_2_10" data-offset1="7" data-width1="3" data-rowheight="1" stroke="#8a9fec" d="M210 30 C 210 80, 300 80, 300 130 L330 130 C 330 80, 300 80, 300 30 Z" opacity="0.5" fill-opacity="null" stroke-opacity="null" stroke-width="1" "="" fill="rgb(224,234,250)" style="display: block;"></path><path data-id="flow_2_11" class="flow flow_2_11" data-offset1="8" data-width1="3" data-rowheight="1" stroke="#8a9fec" d="M240 30 C 240 80, 330 80, 330 130 L360 130 C 360 80, 330 80, 330 30 Z" opacity="0.5" fill-opacity="null" stroke-opacity="null" stroke-width="1" "="" fill="rgb(224,234,250)" style="display: block;"></path><path data-id="flow_2_12" class="flow flow_2_12" data-offset1="9" data-width1="3" data-rowheight="1" stroke="#8a9fec" d="M270 30 C 270 80, 360 80, 360 130 L390 130 C 390 80, 360 80, 360 30 Z" opacity="0.5" fill-opacity="null" stroke-opacity="null" stroke-width="1" "="" fill="rgb(224,234,250)" style="display: block;"></path><path data-id="flow_2_13" class="flow flow_2_13" data-offset1="10" data-width1="3" data-rowheight="1" stroke="#8a9fec" d="M300 30 C 300 80, 390 80, 390 130 L420 130 C 420 80, 390 80, 390 30 Z" opacity="0.5" fill-opacity="null" stroke-opacity="null" stroke-width="1" "="" fill="rgb(224,234,250)" style="display: none;"></path><path data-id="flow_2_14" class="flow flow_2_14" data-offset1="11" data-width1="3" data-rowheight="1" stroke="#8a9fec" d="M330 30 C 330 80, 420 80, 420 130 L450 130 C 450 80, 420 80, 420 30 Z" opacity="0.5" fill-opacity="null" stroke-opacity="null" stroke-width="1" "="" fill="rgb(224,234,250)" style="display: none;"></path><rect data-id="feature_2_4" class="feature feature_2_4" x="120" y="130" width="30" height="30" style="fill:rgb(255,255,255);stroke-width:1;stroke:rgb(140,140,140)"></rect><rect data-id="feature_2_5" class="feature feature_2_5" x="150" y="130" width="30" height="30" style="fill: rgb(224, 234, 250); stroke-width: 1; stroke: rgb(140, 140, 140);"></rect><rect data-id="feature_2_6" class="feature feature_2_6" x="180" y="130" width="30" height="30" style="fill:rgb(255,255,255);stroke-width:1;stroke:rgb(140,140,140)"></rect><rect data-id="feature_2_7" class="feature feature_2_7" x="210" y="130" width="30" height="30" style="fill:rgb(255,255,255);stroke-width:1;stroke:rgb(140,140,140)"></rect><rect data-id="feature_2_9" class="feature feature_2_9" x="270" y="130" width="30" height="30" style="fill:rgb(255,255,255);stroke-width:1;stroke:rgb(140,140,140)"></rect><rect data-id="feature_2_10" class="feature feature_2_10" x="300" y="130" width="30" height="30" style="fill: rgb(224, 234, 250); stroke-width: 1; stroke: rgb(140, 140, 140);"></rect><rect data-id="feature_2_11" class="feature feature_2_11" x="330" y="130" width="30" height="30" style="fill: rgb(224, 234, 250); stroke-width: 1; stroke: rgb(140, 140, 140);"></rect><rect data-id="feature_2_12" class="feature feature_2_12" x="360" y="130" width="30" height="30" style="fill: rgb(224, 234, 250); stroke-width: 1; stroke: rgb(140, 140, 140);"></rect><rect data-id="feature_2_13" class="feature feature_2_13" x="390" y="130" width="30" height="30" style="fill:rgb(255,255,255);stroke-width:1;stroke:rgb(140,140,140)"></rect><rect data-id="feature_2_14" class="feature feature_2_14" x="420" y="130" width="30" height="30" style="fill:rgb(255,255,255);stroke-width:1;stroke:rgb(140,140,140)"></rect><path data-id="flow_3_10" class="flow flow_3_10" data-offset1="9" data-width1="3" data-rowheight="1" stroke="#8a9fec" d="M270 160 C 270 210, 300 210, 300 260 L330 260 C 330 210, 360 210, 360 160 Z" opacity="0.5" fill-opacity="null" stroke-opacity="null" stroke-width="1" "="" fill="rgb(224,234,250)" style="display: none;"></path><path data-id="flow_3_11" class="flow flow_3_11" data-offset1="10" data-width1="3" data-rowheight="1" stroke="#8a9fec" d="M300 160 C 300 210, 330 210, 330 260 L360 260 C 360 210, 390 210, 390 160 Z" opacity="0.5" fill-opacity="null" stroke-opacity="null" stroke-width="1" "="" fill="rgb(224,234,250)" style="display: block;"></path><path data-id="flow_3_12" class="flow flow_3_12" data-offset1="11" data-width1="3" data-rowheight="1" stroke="#8a9fec" d="M330 160 C 330 210, 360 210, 360 260 L390 260 C 390 210, 420 210, 420 160 Z" opacity="0.5" fill-opacity="null" stroke-opacity="null" stroke-width="1" "="" fill="rgb(224,234,250)" style="display: none;"></path><path data-id="flow_3_13" class="flow flow_3_13" data-offset1="12" data-width1="3" data-rowheight="1" stroke="#8a9fec" d="M360 160 C 360 210, 390 210, 390 260 L420 260 C 420 210, 450 210, 450 160 Z" opacity="0.5" fill-opacity="null" stroke-opacity="null" stroke-width="1" "="" fill="rgb(224,234,250)" style="display: none;"></path><rect data-id="feature_3_10" class="feature feature_3_10" x="300" y="260" width="30" height="30" style="fill:rgb(255,255,255);stroke-width:1;stroke:rgb(140,140,140)"></rect><rect data-id="feature_3_11" class="feature feature_3_11" x="330" y="260" width="30" height="30" style="fill: rgb(224, 234, 250); stroke-width: 1; stroke: rgb(140, 140, 140);"></rect><rect data-id="feature_3_12" class="feature feature_3_12" x="360" y="260" width="30" height="30" style="fill:rgb(255,255,255);stroke-width:1;stroke:rgb(140,140,140)"></rect><rect data-id="feature_3_13" class="feature feature_3_13" x="390" y="260" width="30" height="30" style="fill:rgb(255,255,255);stroke-width:1;stroke:rgb(140,140,140)"></rect><path data-id="flow_4_7" class="flow flow_4_7" data-offset1="10" data-width1="1" data-rowheight="1" stroke="#8a9fec" d="M300 290 C 300 340, 210 340, 210 390 L240 390 C 240 340, 330 340, 330 290 Z" opacity="0.5" fill-opacity="null" stroke-opacity="null" stroke-width="1" "="" fill="rgb(224,234,250)" style="display: none;"></path><path data-id="flow_4_8" class="flow flow_4_8" data-offset1="11" data-width1="1" data-rowheight="1" stroke="#8a9fec" d="M330 290 C 330 340, 240 340, 240 390 L270 390 C 270 340, 360 340, 360 290 Z" opacity="0.5" fill-opacity="null" stroke-opacity="null" stroke-width="1" "="" fill="rgb(224,234,250)" style="display: block;"></path><path data-id="flow_4_9" class="flow flow_4_9" data-offset1="12" data-width1="1" data-rowheight="1" stroke="#8a9fec" d="M360 290 C 360 340, 270 340, 270 390 L300 390 C 300 340, 390 340, 390 290 Z" opacity="0.5" fill-opacity="null" stroke-opacity="null" stroke-width="1" "="" fill="rgb(224,234,250)" style="display: none;"></path><path data-id="flow_4_10" class="flow flow_4_10" data-offset1="13" data-width1="1" data-rowheight="1" stroke="#8a9fec" d="M390 290 C 390 340, 300 340, 300 390 L330 390 C 330 340, 420 340, 420 290 Z" opacity="0.5" fill-opacity="null" stroke-opacity="null" stroke-width="1" "="" fill="rgb(224,234,250)" style="display: none;"></path><path data-id="flow_4_7" class="flow flow_4_7" data-offset1="4" data-width1="1" data-rowheight="2" stroke="#8a9fec" d="M120 160 C 120 210, 210 340, 210 390 L240 390 C 240 340, 150 210, 150 160 Z" opacity="0.5" fill-opacity="null" stroke-opacity="null" stroke-width="1" "="" fill="rgb(224,234,250)" style="display: none;"></path><path data-id="flow_4_8" class="flow flow_4_8" data-offset1="5" data-width1="1" data-rowheight="2" stroke="#8a9fec" d="M150 160 C 150 210, 240 340, 240 390 L270 390 C 270 340, 180 210, 180 160 Z" opacity="0.5" fill-opacity="null" stroke-opacity="null" stroke-width="1" "="" fill="rgb(224,234,250)" style="display: block;"></path><path data-id="flow_4_9" class="flow flow_4_9" data-offset1="6" data-width1="1" data-rowheight="2" stroke="#8a9fec" d="M180 160 C 180 210, 270 340, 270 390 L300 390 C 300 340, 210 210, 210 160 Z" opacity="0.5" fill-opacity="null" stroke-opacity="null" stroke-width="1" "="" fill="rgb(224,234,250)" style="display: none;"></path><path data-id="flow_4_10" class="flow flow_4_10" data-offset1="7" data-width1="1" data-rowheight="2" stroke="#8a9fec" d="M210 160 C 210 210, 300 340, 300 390 L330 390 C 330 340, 240 210, 240 160 Z" opacity="0.5" fill-opacity="null" stroke-opacity="null" stroke-width="1" "="" fill="rgb(224,234,250)" style="display: none;"></path><rect data-id="feature_4_7" class="feature feature_4_7" x="210" y="390" width="30" height="30" style="fill:rgb(255,255,255);stroke-width:1;stroke:rgb(140,140,140)"></rect><rect data-id="feature_4_8" class="feature feature_4_8" x="240" y="390" width="30" height="30" style="fill: rgb(224, 234, 250); stroke-width: 1; stroke: rgb(140, 140, 140);"></rect><rect data-id="feature_4_9" class="feature feature_4_9" x="270" y="390" width="30" height="30" style="fill:rgb(255,255,255);stroke-width:1;stroke:rgb(140,140,140)"></rect><rect data-id="feature_4_10" class="feature feature_4_10" x="300" y="390" width="30" height="30" style="fill:rgb(255,255,255);stroke-width:1;stroke:rgb(140,140,140)"></rect></svg>