<svg id="fig5_svg" height="450" width="800" style="position: relative; top: 0px;">
        Sorry, your browser does not support inline SVG.
      <rect data-id="feature_1_3" class="feature feature_1_3" x="90" y="0" width="30" height="30" style="fill:rgb(255,255,255);stroke-width:1;stroke:rgb(140,140,140)"></rect><rect data-id="feature_1_4" class="feature feature_1_4" x="120" y="0" width="30" height="30" style="fill:rgb(255,255,255);stroke-width:1;stroke:rgb(140,140,140)"></rect><rect data-id="feature_1_5" class="feature feature_1_5" x="150" y="0" width="30" height="30" style="fill:rgb(255,255,255);stroke-width:1;stroke:rgb(140,140,140)"></rect><rect data-id="feature_1_6" class="feature feature_1_6" x="180" y="0" width="30" height="30" style="fill: rgb(224, 234, 250); stroke-width: 1; stroke: rgb(140, 140, 140);"></rect><rect data-id="feature_1_7" class="feature feature_1_7" x="210" y="0" width="30" height="30" style="fill: rgb(224, 234, 250); stroke-width: 1; stroke: rgb(140, 140, 140);"></rect><rect data-id="feature_1_8" class="feature feature_1_8" x="240" y="0" width="30" height="30" style="fill: rgb(224, 234, 250); stroke-width: 1; stroke: rgb(140, 140, 140);"></rect><rect data-id="feature_1_9" class="feature feature_1_9" x="270" y="0" width="30" height="30" style="fill:rgb(255,255,255);stroke-width:1;stroke:rgb(140,140,140)"></rect><rect data-id="feature_1_10" class="feature feature_1_10" x="300" y="0" width="30" height="30" style="fill:rgb(255,255,255);stroke-width:1;stroke:rgb(140,140,140)"></rect><path data-id="flow_2_3" class="flow flow_2_3" data-offset1="3" data-width1="1" data-rowheight="1" stroke="#8a9fec" d="M90 30 C 90 80, 90 80, 90 130 L120 130 C 120 80, 120 80, 120 30 Z" opacity="0.5" fill-opacity="null" stroke-opacity="null" stroke-width="1" "="" fill="rgb(224,234,250)" style="display: none;"></path><path data-id="flow_2_4" class="flow flow_2_4" data-offset1="7" data-width1="1" data-rowheight="1" stroke="#8a9fec" d="M210 30 C 210 80, 120 80, 120 130 L150 130 C 150 80, 240 80, 240 30 Z" opacity="0.5" fill-opacity="null" stroke-opacity="null" stroke-width="1" "="" fill="rgb(224,234,250)" style="display: block;"></path><path data-id="flow_2_8" class="flow flow_2_8" data-offset1="2" data-width1="3" data-rowheight="1" stroke="#8a9fec" d="M60 30 C 60 80, 240 80, 240 130 L270 130 C 270 80, 150 80, 150 30 Z" opacity="0.5" fill-opacity="null" stroke-opacity="null" stroke-width="1" "="" fill="rgb(224,234,250)" style="display: none;"></path><path data-id="flow_2_9" class="flow flow_2_9" data-offset1="4" data-width1="3" data-rowheight="1" stroke="#8a9fec" d="M120 30 C 120 80, 270 80, 270 130 L300 130 C 300 80, 210 80, 210 30 Z" opacity="0.5" fill-opacity="null" stroke-opacity="null" stroke-width="1" "="" fill="rgb(224,234,250)" style="display: none;"></path><path data-id="flow_2_10" class="flow flow_2_10" data-offset1="6" data-width1="3" data-rowheight="1" stroke="#8a9fec" d="M180 30 C 180 80, 300 80, 300 130 L330 130 C 330 80, 270 80, 270 30 Z" opacity="0.5" fill-opacity="null" stroke-opacity="null" stroke-width="1" "="" fill="rgb(224,234,250)" style="display: block;"></path><path data-id="flow_2_11" class="flow flow_2_11" data-offset1="8" data-width1="3" data-rowheight="1" stroke="#8a9fec" d="M240 30 C 240 80, 330 80, 330 130 L360 130 C 360 80, 330 80, 330 30 Z" opacity="0.5" fill-opacity="null" stroke-opacity="null" stroke-width="1" "="" fill="rgb(224,234,250)" style="display: none;"></path><rect data-id="feature_2_3" class="feature feature_2_3" x="90" y="130" width="30" height="30" style="fill:rgb(255,255,255);stroke-width:1;stroke:rgb(140,140,140)"></rect><rect data-id="feature_2_4" class="feature feature_2_4" x="120" y="130" width="30" height="30" style="fill: rgb(224, 234, 250); stroke-width: 1; stroke: rgb(140, 140, 140);"></rect><rect data-id="feature_2_8" class="feature feature_2_8" x="240" y="130" width="30" height="30" style="fill:rgb(255,255,255);stroke-width:1;stroke:rgb(140,140,140)"></rect><rect data-id="feature_2_9" class="feature feature_2_9" x="270" y="130" width="30" height="30" style="fill:rgb(255,255,255);stroke-width:1;stroke:rgb(140,140,140)"></rect><rect data-id="feature_2_10" class="feature feature_2_10" x="300" y="130" width="30" height="30" style="fill: rgb(224, 234, 250); stroke-width: 1; stroke: rgb(140, 140, 140);"></rect><rect data-id="feature_2_11" class="feature feature_2_11" x="330" y="130" width="30" height="30" style="fill:rgb(255,255,255);stroke-width:1;stroke:rgb(140,140,140)"></rect><path data-id="flow_3_9" class="flow flow_3_9" data-offset1="8" data-width1="1" data-rowheight="1" stroke="#8a9fec" d="M240 160 C 240 210, 270 210, 270 260 L300 260 C 300 210, 270 210, 270 160 Z" opacity="0.5" fill-opacity="null" stroke-opacity="null" stroke-width="1" "="" fill="rgb(224,234,250)" style="display: none;"></path><path data-id="flow_3_10" class="flow flow_3_10" data-offset1="10" data-width1="1" data-rowheight="1" stroke="#8a9fec" d="M300 160 C 300 210, 300 210, 300 260 L330 260 C 330 210, 330 210, 330 160 Z" opacity="0.5" fill-opacity="null" stroke-opacity="null" stroke-width="1" "="" fill="rgb(224,234,250)" style="display: block;"></path><rect data-id="feature_3_9" class="feature feature_3_9" x="270" y="260" width="30" height="30" style="fill:rgb(255,255,255);stroke-width:1;stroke:rgb(140,140,140)"></rect><rect data-id="feature_3_10" class="feature feature_3_10" x="300" y="260" width="30" height="30" style="fill: rgb(224, 234, 250); stroke-width: 1; stroke: rgb(140, 140, 140);"></rect><path data-id="flow_4_7" class="flow flow_4_7" data-offset1="9" data-width1="1" data-rowheight="1" stroke="#8a9fec" d="M270 290 C 270 340, 210 340, 210 390 L240 390 C 240 340, 300 340, 300 290 Z" opacity="0.5" fill-opacity="null" stroke-opacity="null" stroke-width="1" "="" fill="rgb(224,234,250)" style="display: none;"></path><path data-id="flow_4_8" class="flow flow_4_8" data-offset1="10" data-width1="1" data-rowheight="1" stroke="#8a9fec" d="M300 290 C 300 340, 240 340, 240 390 L270 390 C 270 340, 330 340, 330 290 Z" opacity="0.5" fill-opacity="null" stroke-opacity="null" stroke-width="1" "="" fill="rgb(224,234,250)" style="display: block;"></path><path data-id="flow_4_7" class="flow flow_4_7" data-offset1="3" data-width1="1" data-rowheight="2" stroke="#8a9fec" d="M90 160 C 90 210, 210 340, 210 390 L240 390 C 240 340, 120 210, 120 160 Z" opacity="0.5" fill-opacity="null" stroke-opacity="null" stroke-width="1" "="" fill="rgb(224,234,250)" style="display: none;"></path><path data-id="flow_4_8" class="flow flow_4_8" data-offset1="4" data-width1="1" data-rowheight="2" stroke="#8a9fec" d="M120 160 C 120 210, 240 340, 240 390 L270 390 C 270 340, 150 210, 150 160 Z" opacity="0.5" fill-opacity="null" stroke-opacity="null" stroke-width="1" "="" fill="rgb(224,234,250)" style="display: block;"></path><rect data-id="feature_4_7" class="feature feature_4_7" x="210" y="390" width="30" height="30" style="fill:rgb(255,255,255);stroke-width:1;stroke:rgb(140,140,140)"></rect><rect data-id="feature_4_8" class="feature feature_4_8" x="240" y="390" width="30" height="30" style="fill: rgb(224, 234, 250); stroke-width: 1; stroke: rgb(140, 140, 140);"></rect></svg>